<svg width="20" height="20" viewBox="0 0 20 20" fill="none" xmlns="http://www.w3.org/2000/svg">
<g clip-path="url(#clip0_3_786)">
<g clip-path="url(#clip1_3_786)">
<path fill-rule="evenodd" clip-rule="evenodd" d="M7.21783 4.35363V6.29293C7.21783 6.55821 7.32324 6.81262 7.51086 7.00017L8.48886 7.9778L9.05291 8.54165C9.44341 8.93199 10.0764 8.93199 10.4669 8.54165L11.0309 7.9778L12.0089 7.00017C12.1965 6.81262 12.3019 6.55821 12.3019 6.29293V4.35363V3C12.3019 2.44772 11.8542 2 11.3019 2H9.75989H8.21783C7.66555 2 7.21783 2.44772 7.21783 3V4.35363ZM1.25989 10.5V12.0421C1.25989 12.5943 1.7076 13.0421 2.25989 13.0421H3.61351H5.55281C5.8181 13.0421 6.07251 12.9366 6.26005 12.749L7.23769 11.771L7.80153 11.207C8.19188 10.8165 8.19188 10.1835 7.80153 9.79303L7.23769 9.22897L6.26005 8.25097C6.07251 8.06335 5.8181 7.95794 5.55281 7.95794H3.61351H2.25989C1.7076 7.95794 1.25989 8.40566 1.25989 8.95794V10.5ZM12.2821 9.22897L11.7182 9.79303C11.3279 10.1835 11.3279 10.8165 11.7182 11.207L12.2821 11.771L13.2597 12.749C13.4473 12.9366 13.7017 13.0421 13.967 13.0421H15.9063H17.2599C17.8122 13.0421 18.2599 12.5943 18.2599 12.0421V10.5V8.95794C18.2599 8.40566 17.8122 7.95794 17.2599 7.95794H15.9063H13.967C13.7017 7.95794 13.4473 8.06335 13.2597 8.25097L12.2821 9.22897ZM8.47869 13.0324L7.51059 14.0008C7.32314 14.1884 7.21783 14.4427 7.21783 14.7078V16.6469V18C7.21783 18.5523 7.66555 19 8.21783 19H9.75989H11.3019C11.8542 19 12.3019 18.5523 12.3019 18V16.6464V14.7071C12.3019 14.4418 12.1965 14.1874 12.0089 13.9998L11.0406 13.0319C9.54198 11.5338 9.97676 11.5337 8.47869 13.0324Z" fill="white"/>
</g>
</g>
<defs>
<clipPath id="clip0_3_786">
<rect width="20" height="20" fill="white"/>
</clipPath>
<clipPath id="clip1_3_786">
<rect width="20" height="20" fill="white"/>
</clipPath>
</defs>
</svg>
