<svg width="20" height="20" viewBox="0 0 20 20" fill="none" xmlns="http://www.w3.org/2000/svg">
<g clip-path="url(#clip0_3_876)">
<g clip-path="url(#clip1_3_876)">
<path d="M8.47168 10.5198C8.8608 10.5198 9.1012 10.9444 8.90039 11.2776L5.73828 16.5159C5.53239 16.8565 5.02966 16.8313 4.8584 16.4719L4.30664 15.3127C4.21982 15.1306 4.03163 15.0185 3.83008 15.0286L2.55273 15.092C2.1539 15.1119 1.89396 14.6791 2.09863 14.3362L3.05273 12.7385C3.10749 12.6469 3.18968 12.5747 3.28809 12.5334L8.00195 10.5579C8.06311 10.5323 8.129 10.5198 8.19531 10.5198H8.47168ZM11.7842 10.5198C11.8509 10.5198 11.917 10.5329 11.9785 10.5588L16.6221 12.5159C16.7202 12.5572 16.8028 12.6295 16.8574 12.7209L17.8223 14.3362C18.0269 14.6791 17.766 15.112 17.3672 15.092L16.0908 15.0286C15.8893 15.0185 15.7011 15.1306 15.6143 15.3127L15.0645 16.4651C14.8925 16.8259 14.3879 16.8495 14.1836 16.5061L11.0732 11.2747C10.8755 10.9414 11.1163 10.5198 11.5039 10.5198H11.7842ZM1 4.6731C1 3.5186 2.14609 2.71058 3.2334 3.09888C5.64951 4.19874 6.65196 4.65524 7.06445 4.84302C7.24278 4.92419 7.34766 5.09728 7.34766 5.29321V6.31274C7.34749 6.58869 7.12362 6.81265 6.84766 6.81274H5.72852C5.45246 6.81285 5.22852 7.03667 5.22852 7.31274V7.37134C5.22852 7.64742 5.45246 7.87123 5.72852 7.87134H6.84766C7.12358 7.87143 7.34742 8.09545 7.34766 8.37134V9.36646C7.34766 9.56557 7.22949 9.7461 7.04688 9.82544L3.2334 11.4807C2.14595 11.8691 1.00026 11.0614 1 9.90747V4.6731ZM16.7666 3.09888C17.8539 2.71058 19 3.51861 19 4.6731V9.90747C18.9998 10.8225 18.2589 11.5782 17.3281 11.5784C16.7058 11.5784 16.7435 11.4215 12.9521 9.82056C12.7667 9.74223 12.6436 9.55998 12.6436 9.35864V8.37134C12.6438 8.09553 12.8677 7.87152 13.1436 7.87134H14.2627C14.5388 7.87125 14.7627 7.64743 14.7627 7.37134V7.31274C14.7627 7.03666 14.5388 6.81283 14.2627 6.81274H13.1436C12.8677 6.81256 12.6437 6.58866 12.6436 6.31274V5.30298C12.6436 5.10723 12.7585 4.92922 12.9365 4.8479L16.7666 3.09888ZM11.0859 5.22388C11.3619 5.22406 11.585 5.44687 11.585 5.7229V8.96118C11.585 9.23732 11.3611 9.46118 11.085 9.46118H8.91699C8.64071 9.46093 8.41653 9.23649 8.41699 8.96021L8.42578 5.7229C8.4265 5.44727 8.65015 5.22388 8.92578 5.22388H11.0859Z" fill="white"/>
</g>
</g>
<defs>
<clipPath id="clip0_3_876">
<rect width="20" height="20" fill="white"/>
</clipPath>
<clipPath id="clip1_3_876">
<rect width="20" height="20" fill="white"/>
</clipPath>
</defs>
</svg>
