<svg width="20" height="20" viewBox="0 0 20 20" fill="none" xmlns="http://www.w3.org/2000/svg">
<g clip-path="url(#clip0_3_821)">
<g clip-path="url(#clip1_3_821)">
<path d="M17.9995 2.47695C17.998 2.21402 17.7857 2.00173 17.5228 2.00025C13.5713 1.97801 10.4329 3.42106 8.10123 6.331C7.25012 7.39488 6.507 8.65169 5.87187 10.1053C5.75613 10.3702 5.89752 10.673 6.16209 10.7895C6.81477 11.0768 7.42971 11.4915 7.96968 12.0301C8.50823 12.5701 8.92297 13.185 9.21027 13.8377C9.32673 14.1022 9.62956 14.2436 9.89444 14.1279C11.348 13.4928 12.6048 12.7496 13.6687 11.8985C16.5787 9.56682 18.0217 6.42841 17.9995 2.47695ZM14.3069 8.02509C13.6634 8.67037 12.6181 8.67037 11.9746 8.02509C11.3294 7.38159 11.3294 6.33634 11.9746 5.69284C12.6181 5.04934 13.6634 5.04934 14.3069 5.69284C14.9504 6.33634 14.9504 7.38159 14.3069 8.02509Z" fill="white"/>
<path d="M6.08346 6.22595C6.47501 6.20298 6.67699 6.65143 6.45785 6.97672C5.78025 7.98257 5.17784 9.12766 4.66063 10.3966C4.64838 10.4272 4.61551 10.4442 4.58334 10.4369C3.8912 10.2791 3.18095 10.2537 2.49409 10.3617C2.08199 10.4264 1.69561 10.0383 1.85937 9.6546C2.84298 7.35025 4.29545 6.33082 6.08346 6.22595Z" fill="white"/>
<path d="M10.345 18.1228C9.96134 18.2866 9.57322 17.9002 9.63799 17.4881C9.74595 16.8013 9.72054 16.091 9.56279 15.3989C9.55546 15.3667 9.57244 15.3338 9.60307 15.3216C10.8719 14.803 12.017 14.2014 13.0228 13.5242C13.3482 13.3052 13.7966 13.5072 13.7737 13.8988C13.6688 15.6868 12.6494 17.1392 10.345 18.1228Z" fill="white"/>
<path d="M6.81337 15.5517C6.37248 15.9926 4.78855 16.4985 3.8061 16.7807C3.4426 16.8851 3.11532 16.5578 3.21971 16.1943C3.50186 15.2118 4.00778 13.6279 4.44867 13.187C5.10167 12.534 6.16038 12.534 6.81337 13.187C7.46636 13.84 7.46636 14.8987 6.81337 15.5517Z" fill="white"/>
</g>
</g>
<defs>
<clipPath id="clip0_3_821">
<rect width="20" height="20" fill="white"/>
</clipPath>
<clipPath id="clip1_3_821">
<rect width="20" height="20" fill="white"/>
</clipPath>
</defs>
</svg>
