<svg width="20" height="20" viewBox="0 0 20 20" fill="none" xmlns="http://www.w3.org/2000/svg">
<g clip-path="url(#clip0_3_870)">
<g clip-path="url(#clip1_3_870)">
<path d="M11.9692 6.57814C12.8979 6.42953 13.9506 6.26092 14.9126 6.39846C15.967 6.54931 16.6946 7.03323 17.2026 7.91994C17.8913 9.1222 18.0687 11.1032 17.6655 13.0898C17.4544 14.1299 17.0869 15.1261 16.603 15.9707C16.0719 16.8978 15.4101 17.6412 14.6362 18.1807C13.2794 19.1264 12.5155 19.044 11.5483 18.9395C11.2038 18.9022 10.8468 18.8643 10.439 18.8643C10.0312 18.8643 9.67498 18.9022 9.33057 18.9395C8.36338 19.044 7.59947 19.1264 6.24268 18.1807C5.46886 17.6412 4.807 16.8977 4.27588 15.9707C3.79199 15.1261 3.42448 14.1299 3.21338 13.0898C2.81016 11.1032 2.98756 9.12219 3.67627 7.91994C4.18432 7.03319 4.91185 6.54929 5.96631 6.39846C6.92832 6.26093 7.98099 6.42953 8.90967 6.57814C9.49624 6.67199 10.0028 6.7529 10.439 6.75295C10.8752 6.75295 11.3825 6.67202 11.9692 6.57814ZM5.38721 1.00686C6.17991 0.974019 7.90219 1.03066 8.896 2.02443C9.73431 2.86282 9.90589 4.21922 9.91943 5.09865C9.90945 5.25697 9.90648 5.40391 9.90771 5.53322C9.64755 5.5438 9.28862 5.5443 8.88916 5.50588C8.67905 5.47256 8.45866 5.4388 8.23096 5.40822C7.57845 5.2736 6.9016 5.01054 6.40576 4.51467C5.41183 3.52077 5.35439 1.79916 5.38721 1.00686ZM13.7485 2.74025C13.7504 2.90417 13.7447 3.10467 13.7212 3.32033C13.6695 3.79342 13.5184 4.44696 13.0933 4.87209C12.5151 5.44999 11.5357 5.532 10.9712 5.52639C10.9758 5.40065 10.9782 5.2576 10.9761 5.10158C10.9798 5.0513 10.984 4.99975 10.9897 4.94729C11.0414 4.47418 11.1925 3.82071 11.6177 3.39553C12.1988 2.8146 13.1851 2.73333 13.7485 2.74025Z" fill="white"/>
</g>
</g>
<defs>
<clipPath id="clip0_3_870">
<rect width="20" height="20" fill="white"/>
</clipPath>
<clipPath id="clip1_3_870">
<rect width="20" height="20" fill="white"/>
</clipPath>
</defs>
</svg>
