<svg width="20" height="20" viewBox="0 0 20 20" fill="none" xmlns="http://www.w3.org/2000/svg">
<g clip-path="url(#clip0_3_858)">
<g clip-path="url(#clip1_3_858)">
<g clip-path="url(#clip2_3_858)">
<mask id="mask0_3_858" style="mask-type:luminance" maskUnits="userSpaceOnUse" x="0" y="0" width="20" height="20">
<path d="M20 0H0V20H20V0Z" fill="white"/>
</mask>
<g mask="url(#mask0_3_858)">
<path d="M12.7677 3.00396C12.9142 2.99384 13.048 3.00172 13.1896 3.044C13.496 3.13562 13.7996 3.27507 14.0978 3.39263L16.0167 4.16217L17.257 4.65338C17.5323 4.76159 17.8336 4.85956 18.089 5.00982C18.3694 5.17657 18.5981 5.41786 18.7491 5.70709C18.8853 5.96257 18.9539 6.25575 19.0353 6.53228L19.3361 7.544L19.7433 8.87799C19.8169 9.11864 19.9004 9.36042 19.9611 9.60455C20.037 9.91038 20.006 10.1435 19.8439 10.4122C19.7557 10.5581 19.6377 10.694 19.4884 10.7794C19.2302 10.9269 18.9544 11.0531 18.6886 11.1866L17.2394 11.9141L12.6193 14.2432C11.3912 14.8813 10.16 15.5132 8.92492 16.1378L8.10461 16.5547C7.83438 16.6925 7.56508 16.8488 7.26867 16.9219C7.25155 16.9258 7.23429 16.93 7.21692 16.9327C7.00031 16.9663 6.78528 16.9345 6.58215 16.8545C6.39353 16.7803 6.21451 16.6766 6.03528 16.5821L5.33215 16.212L3.15344 15.0547C2.61607 14.7663 2.07681 14.4807 1.53625 14.1983C1.1779 14.0105 0.778048 13.838 0.455198 13.5948C0.205791 13.4068 0.0550649 13.1439 0.0137919 12.834C-0.0103883 12.6522 -0.00269522 12.4674 0.0362529 12.2881C0.0847108 12.0641 0.167512 11.845 0.240354 11.628L0.560667 10.6758L0.982542 9.42584C1.06539 9.18148 1.14194 8.93097 1.24035 8.69244C1.30753 8.52967 1.38699 8.37944 1.49426 8.23931C1.65799 8.02491 1.86585 7.84814 2.10364 7.72076C2.30956 7.60795 2.52881 7.51563 2.74231 7.41802L3.76184 6.95513L6.87219 5.55572L10.4835 3.93853L11.6739 3.40631C11.9063 3.30258 12.1389 3.19052 12.3761 3.09869C12.5035 3.04942 12.6325 3.02158 12.7677 3.00396ZM2.255 8.90435C2.08742 8.98372 2.03337 9.06561 1.9718 9.23834C1.73303 9.90838 1.51325 10.5863 1.28137 11.2588L1.03821 11.9659C0.986235 12.1164 0.923287 12.271 0.889768 12.4268C0.864816 12.5431 0.850733 12.6733 0.902464 12.7842C0.939751 12.8623 0.997196 12.9292 1.06946 12.9766C1.23736 13.0887 1.43769 13.1739 1.61731 13.2667C1.92571 13.427 2.2335 13.5894 2.54016 13.753L5.87219 15.5157C6.05677 15.6139 6.25151 15.7368 6.45032 15.8008C6.53519 15.7814 6.62439 15.7662 6.6759 15.6876C6.70827 15.6381 6.71267 15.5781 6.71789 15.5206C6.77174 14.9291 6.78944 14.3287 6.82727 13.7354L6.92785 12.1749C6.94314 11.9455 7.01434 11.3859 6.96594 11.1846C6.91201 10.9607 6.77077 10.8078 6.57532 10.6944C6.34935 10.5632 6.07912 10.4722 5.83801 10.3711C5.35951 10.1691 4.87915 9.96948 4.39856 9.77252L3.08899 9.21978C2.86551 9.12405 2.64087 9.01467 2.41223 8.93267C2.35823 8.91332 2.31213 8.90508 2.255 8.90435ZM17.3917 5.8858C17.047 5.95179 16.6385 6.18543 16.3155 6.33404L14.7423 7.05474L10.4161 9.03619L8.83215 9.76177C8.56427 9.8846 8.28996 10.0012 8.02649 10.1329C7.93486 10.1787 7.84702 10.2467 7.78918 10.3321C7.73453 10.4129 7.71278 10.51 7.73547 10.6055C7.76138 10.7146 7.83888 10.8065 7.93469 10.8624C8.00645 10.9041 8.07265 10.9132 8.15442 10.9141C8.40645 10.8625 8.64835 10.6979 8.88391 10.5928C9.74072 10.2095 10.5942 9.81772 11.4435 9.41802L15.4396 7.59283L16.8009 6.97369C17.0424 6.86429 17.2907 6.76281 17.5284 6.64556C17.5993 6.61059 17.6709 6.56056 17.7169 6.49517C17.7775 6.40902 17.8008 6.27709 17.7784 6.17486C17.7575 6.07968 17.7009 5.99364 17.6173 5.94244C17.5493 5.90096 17.4711 5.88054 17.3917 5.8858Z" fill="white"/>
</g>
</g>
</g>
</g>
<defs>
<clipPath id="clip0_3_858">
<rect width="20" height="20" fill="white"/>
</clipPath>
<clipPath id="clip1_3_858">
<rect width="20" height="20" fill="white"/>
</clipPath>
<clipPath id="clip2_3_858">
<rect width="20" height="20" fill="white"/>
</clipPath>
</defs>
</svg>
