<svg width="20" height="20" viewBox="0 0 20 20" fill="none" xmlns="http://www.w3.org/2000/svg">
<g clip-path="url(#clip0_3_815)">
<g clip-path="url(#clip1_3_815)">
<path fill-rule="evenodd" clip-rule="evenodd" d="M11.3158 9.02022C11.546 10.1629 10.326 11.0231 9.32835 10.4738C9.59335 11.1121 10.057 11.5746 10.561 11.7074L8.39804 12.1432C8.81131 11.8255 9.05969 11.2196 9.05674 10.5285C8.35007 11.4212 6.89173 11.1006 6.66153 9.95795C6.41241 8.7215 7.42075 7.72805 8.34615 6.32332C9.75236 7.25828 11.0666 7.78377 11.3158 9.02022ZM16.0699 16.9935C14.0283 17.4048 11.9867 17.8161 9.9547 18.2255C9.13074 18.3915 8.31489 18.0196 7.87914 17.3562L13.5264 16.2184C15.1463 15.892 16.193 14.3163 15.8664 12.695L14.0146 3.50392C14.8374 3.6214 15.5354 4.23109 15.7073 5.0844C16.351 8.27922 16.9928 11.4647 17.6346 14.6501C17.8496 15.7176 17.1466 16.7765 16.0699 16.9935ZM13.33 15.2439L7.21485 16.476C6.13787 16.693 5.08008 15.9897 4.86294 14.912L2.93756 5.35565C2.72059 4.27877 3.42335 3.2199 4.50032 3.00291L10.6155 1.77083C11.6921 1.55392 12.75 2.25805 12.967 3.33493L14.8924 12.8913C15.1095 13.969 14.4067 15.027 13.33 15.2439Z" fill="white"/>
</g>
</g>
<defs>
<clipPath id="clip0_3_815">
<rect width="20" height="20" fill="white"/>
</clipPath>
<clipPath id="clip1_3_815">
<rect width="20" height="20" fill="white"/>
</clipPath>
</defs>
</svg>
