<svg width="20" height="20" viewBox="0 0 20 20" fill="none" xmlns="http://www.w3.org/2000/svg">
<g clip-path="url(#clip0_3_800)">
<g clip-path="url(#clip1_3_800)">
<path d="M16.377 13.5645H14.6895V11.877C14.6895 11.5695 14.4345 11.3145 14.127 11.3145C13.8195 11.3145 13.5645 11.5695 13.5645 11.877V13.5645H11.877C11.5695 13.5645 11.3145 13.8195 11.3145 14.127C11.3145 14.4345 11.5695 14.6895 11.877 14.6895H13.5645V16.377C13.5645 16.6845 13.8195 16.9395 14.127 16.9395C14.4345 16.9395 14.6895 16.6845 14.6895 16.377V14.6895H16.377C16.6845 14.6895 16.9395 14.4345 16.9395 14.127C16.9395 13.8195 16.6845 13.5645 16.377 13.5645Z" fill="white"/>
<path d="M17.5 7.38805V3.98305C17.5 2.92555 17.02 2.49805 15.8275 2.49805H12.7975C11.605 2.49805 11.125 2.92555 11.125 3.98305V7.38055C11.125 8.44555 11.605 8.86555 12.7975 8.86555H15.8275C17.02 8.87305 17.5 8.44555 17.5 7.38805Z" fill="white"/>
<path d="M8.87305 7.38805V3.98305C8.87305 2.92555 8.39305 2.49805 7.20055 2.49805H4.17055C2.97805 2.49805 2.49805 2.92555 2.49805 3.98305V7.38055C2.49805 8.44555 2.97805 8.86555 4.17055 8.86555H7.20055C8.39305 8.87305 8.87305 8.44555 8.87305 7.38805Z" fill="white"/>
<path d="M8.87305 15.8275V12.7975C8.87305 11.605 8.39305 11.125 7.20055 11.125H4.17055C2.97805 11.125 2.49805 11.605 2.49805 12.7975V15.8275C2.49805 17.02 2.97805 17.5 4.17055 17.5H7.20055C8.39305 17.5 8.87305 17.02 8.87305 15.8275Z" fill="white"/>
</g>
</g>
<defs>
<clipPath id="clip0_3_800">
<rect width="20" height="20" fill="white"/>
</clipPath>
<clipPath id="clip1_3_800">
<rect width="20" height="20" fill="white"/>
</clipPath>
</defs>
</svg>
