<svg width="20" height="20" viewBox="0 0 20 20" fill="none" xmlns="http://www.w3.org/2000/svg">
<g clip-path="url(#clip0_3_837)">
<g clip-path="url(#clip1_3_837)">
<path d="M7.01367 11.8242L2.65039 13.1668C3.45501 15.0316 4.9654 16.5422 6.83051 17.3469L8.17316 12.9836C7.71186 12.7009 7.30903 12.3061 7.01367 11.8242Z" fill="white"/>
<path d="M17.351 13.1705L12.9876 11.8281C12.7032 12.2923 12.3073 12.694 11.8281 12.9876L13.1708 17.3509C15.0356 16.5464 16.5463 15.0359 17.351 13.1705Z" fill="white"/>
<path d="M2.31308 7.77344C1.89898 9.21059 1.89231 10.7671 2.31308 12.2272L6.61786 10.9026C6.46093 10.3121 6.46093 9.68858 6.61789 9.09809L2.31308 7.77344Z" fill="white"/>
<path d="M9.09809 13.3828L7.77344 17.6876C9.22199 18.1051 10.7786 18.1051 12.2273 17.6876L10.9026 13.3828C10.3121 13.5397 9.68858 13.5397 9.09809 13.3828Z" fill="white"/>
<path d="M2.65039 6.82869L7.01367 8.1713C7.2981 7.70724 7.6941 7.30541 8.17316 7.01185L6.83081 2.64844C4.9658 3.45306 3.45521 4.96341 2.65039 6.82869Z" fill="white"/>
<path d="M17.6877 12.2269C18.1051 10.7784 18.1051 9.22205 17.6876 7.77344L13.3828 9.09805C13.5397 9.68858 13.5397 10.312 13.3828 10.9025L17.6877 12.2269Z" fill="white"/>
<path d="M12.9856 8.17511L17.3489 6.83246C16.5442 4.96752 15.0339 3.45713 13.1688 2.65234L11.8262 7.01566C12.2912 7.30062 12.6926 7.69702 12.9856 8.17511Z" fill="white"/>
<path d="M10.9023 6.61787L12.2269 2.31306C10.784 1.89729 9.22785 1.89403 7.77344 2.31299L9.09779 6.61787C9.68828 6.46094 10.3118 6.46094 10.9023 6.61787Z" fill="white"/>
</g>
</g>
<defs>
<clipPath id="clip0_3_837">
<rect width="20" height="20" fill="white"/>
</clipPath>
<clipPath id="clip1_3_837">
<rect width="20" height="20" fill="white"/>
</clipPath>
</defs>
</svg>
