<svg width="20" height="20" viewBox="0 0 20 20" fill="none" xmlns="http://www.w3.org/2000/svg">
<g clip-path="url(#clip0_3_850)">
<g clip-path="url(#clip1_3_850)">
<path d="M15.7756 12.4023L15.3103 14.4508C15.2278 14.8177 15.0447 15.1544 14.7816 15.423C14.5184 15.6917 14.1856 15.8817 13.8205 15.9718C12.6877 16.2552 11.3658 16.4052 10.0002 16.4052C8.6345 16.4052 7.3126 16.2552 6.17977 15.9718C5.81467 15.8817 5.48188 15.6917 5.21875 15.423C4.95561 15.1544 4.77254 14.8177 4.69005 14.4508L4.22473 12.4023C2.7872 12.9989 2 13.8149 2 14.7177C2 15.6787 2.89158 16.5409 4.51067 17.1456C5.98445 17.6959 7.93387 17.999 10.0002 17.999C12.0664 17.999 14.0159 17.6959 15.4896 17.1456C17.1087 16.5409 18.0003 15.6787 18.0003 14.7177C18.0003 13.8149 17.2131 12.9989 15.7756 12.4023Z" fill="white"/>
<path d="M5.21674 7.52564C4.72111 7.34782 4.2986 7.1475 3.94141 6.92188L5.60519 14.2433C5.6497 14.4407 5.74829 14.6218 5.88992 14.7664C6.03154 14.9109 6.21062 15.0132 6.40708 15.0617C7.46741 15.3267 8.70994 15.468 10.0009 15.468C11.2919 15.468 12.5322 15.3277 13.5947 15.0617C13.7915 15.0133 13.9708 14.9109 14.1126 14.7662C14.2545 14.6214 14.3531 14.44 14.3975 14.2423L16.0604 6.92188C15.7032 7.1475 15.2807 7.34782 14.7851 7.52564C13.4853 7.99221 11.7866 8.24909 10.0009 8.24909C8.21524 8.24909 6.51646 7.99221 5.21674 7.52564Z" fill="white"/>
<path d="M5.53285 6.64447C6.73319 7.07541 8.31978 7.3126 10.0001 7.3126C11.6805 7.3126 13.2671 7.07541 14.469 6.64447C16.1993 6.02258 16.5628 5.21881 16.5628 4.6563C16.5628 4.09379 16.1993 3.29003 14.469 2.66814C13.2671 2.23719 11.6805 2 10.0001 2C8.31978 2 6.73319 2.23719 5.53285 2.66814C3.80094 3.29003 3.4375 4.09379 3.4375 4.6563C3.4375 5.21881 3.80094 6.02258 5.53285 6.64447Z" fill="white"/>
</g>
</g>
<defs>
<clipPath id="clip0_3_850">
<rect width="20" height="20" fill="white"/>
</clipPath>
<clipPath id="clip1_3_850">
<rect width="20" height="20" fill="white"/>
</clipPath>
</defs>
</svg>
