<svg width="20" height="20" viewBox="0 0 20 20" fill="none" xmlns="http://www.w3.org/2000/svg">
<g clip-path="url(#clip0_3_809)">
<g clip-path="url(#clip1_3_809)">
<g clip-path="url(#clip2_3_809)">
<path d="M17.7425 10.2934C17.1245 9.68986 16.2601 9.45171 15.4439 9.6474C15.1017 9.72946 14.732 9.92946 14.4277 10.1695L14.355 10.2148C13.0896 8.65287 12.1486 6.81834 11.6752 4.84385L11.4984 4.10671L13.371 2.62762L12.5919 1.70081L9.80624 3.89997C9.75991 3.93892 9.73989 3.97156 9.68724 3.98419L9.61565 3.91783C8.43017 2.92144 6.83178 2.52518 5.30484 2.89131C4.48872 3.087 3.7231 3.49331 3.08696 4.09128L0.860474 6.18421L2.59988 6.93641C3.90129 7.4874 5.32493 7.61932 6.69391 7.29107C6.93085 7.23425 7.13514 7.15743 7.33944 7.0806C6.63465 8.66944 6.41422 10.4206 6.75187 12.1771L6.37175 12.1012C5.98531 11.999 5.59781 12.0084 5.22923 12.0967C4.41311 12.2924 3.75065 12.8967 3.44721 13.7212C3.28387 14.3171 3.24477 14.9668 3.38997 15.5723C3.66141 16.7044 4.38779 17.6438 5.41962 18.2316C6.31457 18.713 7.37703 18.848 8.35111 18.6144L8.85132 18.4945C10.0623 18.2041 10.9965 17.3398 11.3559 16.1679C11.5518 15.5919 11.5846 14.9159 11.4394 14.3104C11.0417 12.6518 9.4361 11.6448 7.77753 12.0425L7.32998 12.1498C7.11671 9.75098 7.95328 7.43454 9.57842 5.73637C9.69111 5.62583 9.80381 5.51528 9.9165 5.40474C10.0755 5.25525 10.2609 5.09944 10.4463 4.94363L10.559 4.83309C11.1293 6.97924 12.2134 8.94648 13.7273 10.6159L13.1218 10.761C12.1741 10.9883 11.4126 11.6442 11.0365 12.5139C11.4523 12.971 11.7818 13.5323 11.9396 14.1904C12.0975 14.8486 12.091 15.5183 11.914 16.1733C12.773 16.9695 13.9323 17.2762 15.0907 16.9984L15.5909 16.8785C16.5913 16.6386 17.4507 16.0428 18.03 15.2079C18.6894 14.2424 18.9108 13.0757 18.633 11.9173C18.5142 11.3055 18.1847 10.7442 17.7425 10.2934Z" fill="white"/>
</g>
</g>
</g>
<defs>
<clipPath id="clip0_3_809">
<rect width="20" height="20" fill="white"/>
</clipPath>
<clipPath id="clip1_3_809">
<rect width="20" height="20" fill="white"/>
</clipPath>
<clipPath id="clip2_3_809">
<rect width="20" height="20" fill="white"/>
</clipPath>
</defs>
</svg>
