<svg width="20" height="20" viewBox="0 0 20 20" fill="none" xmlns="http://www.w3.org/2000/svg">
<g clip-path="url(#clip0_3_830)">
<g clip-path="url(#clip1_3_830)">
<path d="M16.012 6H8.88805C7.62353 6 6.59961 7.02129 6.59961 8.28331V15.397C6.59961 16.6615 7.62353 17.6828 8.88805 17.6828H16.012C17.2739 17.6828 18.3004 16.6615 18.3004 15.397V8.28331C18.3004 7.02129 17.2739 6 16.012 6ZM9.91709 15.3355C9.25408 15.3355 8.71656 14.798 8.71656 14.1376C8.71656 13.4745 9.25408 12.9369 9.91709 12.9369C10.5826 12.9369 11.1202 13.4745 11.1202 14.1376C11.1202 14.798 10.5826 15.3355 9.91709 15.3355ZM9.91709 10.7432C9.25408 10.7432 8.71656 10.2083 8.71656 9.54521C8.71656 8.88227 9.25408 8.34731 9.91709 8.34731C10.5826 8.34731 11.1202 8.88226 11.1202 9.54521C11.1202 10.2083 10.5826 10.7432 9.91709 10.7432ZM14.9803 15.3355C14.3148 15.3355 13.7773 14.798 13.7773 14.1376C13.7773 13.4745 14.3148 12.9369 14.9803 12.9369C15.6433 12.9369 16.1809 13.4745 16.1809 14.1376C16.1809 14.798 15.6433 15.3355 14.9803 15.3355ZM14.9803 10.7432C14.3148 10.7432 13.7773 10.2083 13.7773 9.54521C13.7773 8.88227 14.3148 8.34731 14.9803 8.34731C15.6433 8.34731 16.1809 8.88226 16.1809 9.54521C16.1809 10.2083 15.6433 10.7432 14.9803 10.7432Z" fill="white"/>
<path d="M14.4649 4.75505H7.98608C6.51164 4.75505 5.31368 5.95045 5.31368 7.42233V13.338L3.16854 12.8389C1.93727 12.5522 1.17189 11.3235 1.45862 10.0947L3.07636 3.16793C3.36309 1.93928 4.59436 1.17385 5.82564 1.46058C7.3487 1.8138 10.999 2.66373 12.7626 3.07319C13.6304 3.27543 14.2678 3.94612 14.4649 4.75505Z" fill="white"/>
</g>
</g>
<defs>
<clipPath id="clip0_3_830">
<rect width="20" height="20" fill="white"/>
</clipPath>
<clipPath id="clip1_3_830">
<rect width="20" height="20" fill="white"/>
</clipPath>
</defs>
</svg>
