<svg width="20" height="20" viewBox="0 0 20 20" fill="none" xmlns="http://www.w3.org/2000/svg">
<g clip-path="url(#clip0_3_794)">
<g clip-path="url(#clip1_3_794)">
<path d="M10.6937 18.1686C13.2986 17.6464 16.6667 15.7725 16.6667 10.9268C16.6667 6.51715 13.4389 3.58075 11.1179 2.23152C10.6029 1.93213 10 2.32586 10 2.92158V4.44531C10 5.64686 9.49481 7.84007 8.0911 8.75231C7.37443 9.21806 6.60043 8.52097 6.51333 7.67071L6.44181 6.97252C6.35866 6.16084 5.53201 5.66811 4.8833 6.16298C3.71789 7.05201 2.5 8.60881 2.5 10.9268C2.5 16.8527 6.90741 18.3342 9.11111 18.3342C9.23929 18.3342 9.37399 18.3304 9.51422 18.3223C8.42609 18.2293 6.66667 17.5542 6.66667 15.371C6.66667 13.6632 7.91256 12.5079 8.85918 11.9463C9.11378 11.7953 9.41176 11.9914 9.41176 12.2874V12.7784C9.41176 13.1542 9.55709 13.7415 9.90303 14.1436C10.2945 14.5986 10.8691 14.122 10.9154 13.5236C10.93 13.3348 11.1199 13.2145 11.2834 13.31C11.8178 13.6224 12.5 14.2896 12.5 15.371C12.5 17.0777 11.5592 17.8627 10.6937 18.1686Z" fill="white"/>
</g>
</g>
<defs>
<clipPath id="clip0_3_794">
<rect width="20" height="20" fill="white"/>
</clipPath>
<clipPath id="clip1_3_794">
<rect width="20" height="20" fill="white"/>
</clipPath>
</defs>
</svg>
