<svg width="20" height="20" viewBox="0 0 20 20" fill="none" xmlns="http://www.w3.org/2000/svg">
<g clip-path="url(#clip0_3_2625)">
<g clip-path="url(#clip1_3_2625)">
<path d="M18.8576 1.08789L11.1694 6.79529L12.6036 3.43316L18.8576 1.08789Z" fill="#E27525"/>
<path d="M11.1696 6.88917C11.1545 6.89507 11.1377 6.89507 11.1226 6.88917C11.114 6.87717 11.1094 6.86278 11.1094 6.84802C11.1094 6.83326 11.114 6.81887 11.1226 6.80688L12.5627 3.43886C12.5535 3.42865 12.5475 3.41598 12.5454 3.40241C12.5433 3.38884 12.5452 3.37495 12.5509 3.36245L18.8109 1.01131C18.8273 1.00515 18.8455 1.00536 18.8618 1.01188C18.8781 1.0184 18.8914 1.03077 18.899 1.04657C18.9106 1.05951 18.917 1.07625 18.917 1.0936C18.917 1.11095 18.9106 1.12769 18.899 1.14062L11.1696 6.8539C11.1737 6.86531 11.1737 6.87776 11.1696 6.88917ZM12.6626 3.50352L11.3107 6.57764L18.3994 1.33459L12.6626 3.50352Z" fill="#E27525"/>
<path d="M1.05286 1.08789L8.69407 6.84819L7.33629 3.43316L1.05286 1.08789Z" fill="#E27525"/>
<path d="M8.70691 6.92415C8.69179 6.93005 8.675 6.93005 8.65988 6.92415L1.00691 1.14621C0.995347 1.13328 0.988953 1.11654 0.988953 1.09919C0.988953 1.08184 0.995347 1.0651 1.00691 1.05217C1.01295 1.03884 1.02298 1.02772 1.03562 1.02035C1.04826 1.01298 1.06288 1.00972 1.07745 1.01102L7.36088 3.36217C7.38135 3.36917 7.39825 3.38395 7.4079 3.40331L8.77156 6.82422C8.78112 6.83581 8.78634 6.85035 8.78634 6.86537C8.78634 6.88039 8.78112 6.89493 8.77156 6.90651C8.76343 6.91508 8.7531 6.92125 8.7417 6.92436C8.7303 6.92747 8.71827 6.9274 8.70691 6.92415ZM1.50065 1.32843L8.55408 6.6185L7.27859 3.4856L1.50065 1.32843Z" fill="#E27525"/>
<path d="M16.078 14.3301L14.0267 17.4689L18.4233 18.6797L19.687 14.4006L16.078 14.3301Z" fill="#E27525"/>
<path d="M18.4229 18.7508L14.0263 17.54C14.0145 17.5366 14.0036 17.5306 13.9945 17.5225C13.9853 17.5143 13.9781 17.5043 13.9734 17.493C13.969 17.4828 13.9667 17.4718 13.9667 17.4607C13.9667 17.4495 13.969 17.4385 13.9734 17.4283L16.0306 14.2895C16.0365 14.2778 16.0459 14.2681 16.0574 14.2618C16.069 14.2555 16.0822 14.2529 16.0953 14.2543L19.6984 14.3248C19.71 14.3241 19.7216 14.3263 19.7322 14.3313C19.7427 14.3362 19.7519 14.3436 19.7589 14.3529C19.7659 14.3622 19.7704 14.3731 19.7722 14.3846C19.7739 14.3961 19.7728 14.4079 19.7689 14.4189L18.5052 18.6979C18.5039 18.7071 18.5006 18.7159 18.4956 18.7237C18.4906 18.7316 18.4839 18.7382 18.4761 18.7432C18.4683 18.7482 18.4595 18.7515 18.4503 18.7528C18.4412 18.7541 18.4318 18.7535 18.4229 18.7508ZM14.1438 17.4224L18.3759 18.598L19.5867 14.4835L16.1188 14.4189L14.1438 17.4224Z" fill="#E27525"/>
<path d="M0.237427 14.4006L1.48941 18.6797L5.88017 17.4689L3.83468 14.3301L0.237427 14.4006Z" fill="#E27525"/>
<path d="M1.48951 18.7505C1.47324 18.7522 1.45691 18.7477 1.44382 18.7379C1.43073 18.7281 1.42185 18.7137 1.41897 18.6976L0.166988 14.4185C0.161313 14.4087 0.158325 14.3975 0.158325 14.3862C0.158325 14.3748 0.161313 14.3637 0.166988 14.3538C0.173664 14.3445 0.182504 14.337 0.192745 14.3319C0.202986 14.3268 0.214319 14.3242 0.225766 14.3244L3.81714 14.2539C3.82901 14.2548 3.8405 14.2585 3.8507 14.2646C3.86091 14.2707 3.86954 14.2791 3.87592 14.2892L5.92141 17.428C5.92709 17.4378 5.93007 17.4489 5.93007 17.4603C5.93007 17.4716 5.92709 17.4828 5.92141 17.4926C5.91857 17.504 5.91269 17.5143 5.90441 17.5226C5.89613 17.5309 5.88575 17.5368 5.87439 17.5396L1.50714 18.7505H1.48951ZM0.313934 14.4714L1.5189 18.5859L5.74508 17.4103L3.79363 14.4067L0.313934 14.4714Z" fill="#E27525"/>
<path d="M5.64459 9.02888L4.422 10.8745L8.77161 11.0685L8.63054 6.36621L5.64459 9.02888Z" fill="#E27525"/>
<path d="M8.77196 11.1445L4.41646 10.9446C4.40388 10.9437 4.39179 10.9393 4.38145 10.9321C4.37111 10.9249 4.36291 10.915 4.35769 10.9035C4.35202 10.8926 4.34906 10.8805 4.34906 10.8682C4.34906 10.8559 4.35202 10.8438 4.35769 10.833L5.58028 8.98731L8.56623 6.34227C8.57785 6.33556 8.59102 6.33203 8.60444 6.33203C8.61785 6.33203 8.63103 6.33556 8.64264 6.34227C8.6561 6.34702 8.6678 6.35575 8.6762 6.36729C8.6846 6.37884 8.68929 6.39266 8.68967 6.40692L8.83661 11.1092C8.84203 11.1264 8.84203 11.1449 8.83661 11.1621C8.82525 11.1654 8.81322 11.1654 8.80182 11.1623C8.79042 11.1592 8.78009 11.153 8.77196 11.1445ZM4.55165 10.8036L8.66615 10.9917L8.53096 6.54212L5.69784 9.07547L4.55165 10.8036Z" fill="#E27525"/>
<path d="M14.2729 9.02899L11.2399 6.33105L11.1694 11.0686L15.519 10.8746L14.2729 9.02899Z" fill="#E27525"/>
<path d="M11.1702 11.1447C11.1533 11.1516 11.1343 11.1516 11.1173 11.1447C11.111 11.1276 11.111 11.1089 11.1173 11.0918L11.1702 6.33075C11.1706 6.31648 11.1753 6.30266 11.1837 6.29112C11.1921 6.27957 11.2038 6.27085 11.2173 6.2661C11.2289 6.25939 11.2421 6.25586 11.2555 6.25586C11.2689 6.25586 11.2821 6.25939 11.2937 6.2661L14.3266 8.96403L15.5492 10.8097C15.5549 10.8206 15.5579 10.8327 15.5579 10.8449C15.5579 10.8572 15.5549 10.8693 15.5492 10.8802C15.5423 10.8915 15.5328 10.9011 15.5216 10.9082C15.5104 10.9153 15.4978 10.9198 15.4846 10.9214L11.135 11.1212L11.1702 11.1447ZM11.3407 6.49533L11.2173 11.0037L15.3611 10.8156L14.215 9.08747L11.3407 6.49533Z" fill="#E27525"/>
<path d="M5.87927 17.4685L8.51255 16.193L6.2437 14.4297L5.87927 17.4685Z" fill="#E27525"/>
<path d="M5.88018 17.5398C5.87377 17.5429 5.86673 17.5445 5.8596 17.5445C5.85248 17.5445 5.84544 17.5429 5.83903 17.5398C5.82772 17.5319 5.81856 17.5213 5.8124 17.509C5.80624 17.4967 5.80327 17.483 5.80376 17.4692L6.17407 14.4304C6.17504 14.4178 6.17937 14.4057 6.18661 14.3954C6.19385 14.385 6.20372 14.3768 6.21521 14.3716C6.2266 14.3643 6.23987 14.3604 6.25342 14.3604C6.26697 14.3604 6.28023 14.3643 6.29163 14.3716L8.56048 16.135C8.5668 16.1446 8.57016 16.1558 8.57016 16.1673C8.57016 16.1788 8.5668 16.19 8.56048 16.1996C8.5595 16.2122 8.55517 16.2243 8.54794 16.2346C8.5407 16.245 8.53082 16.2532 8.51933 16.2584L5.88605 17.528L5.88018 17.5398ZM6.30338 14.5656L5.96834 17.3458L8.37238 16.1702L6.30338 14.5656Z" fill="#E27525"/>
<path d="M11.3992 16.193L14.0266 17.4685L13.668 14.4297L11.3992 16.193Z" fill="#E27525"/>
<path d="M14.0268 17.5396H13.9974L11.37 16.2935C11.3585 16.2883 11.3486 16.2801 11.3414 16.2698C11.3341 16.2594 11.3298 16.2473 11.3288 16.2347C11.3225 16.2251 11.3192 16.2139 11.3192 16.2024C11.3192 16.1909 11.3225 16.1797 11.3288 16.1701L13.5977 14.4067C13.6093 14.4 13.6225 14.3965 13.6359 14.3965C13.6493 14.3965 13.6625 14.4 13.6741 14.4067C13.6856 14.4119 13.6955 14.4202 13.7027 14.4305C13.71 14.4408 13.7143 14.4529 13.7153 14.4655L14.1091 17.4691C14.1123 17.4824 14.1112 17.4965 14.1059 17.5092C14.1006 17.5218 14.0914 17.5325 14.0797 17.5396C14.0719 17.5449 14.0627 17.5478 14.0532 17.5478C14.0438 17.5478 14.0346 17.5449 14.0268 17.5396ZM11.5404 16.1818L13.9386 17.3574L13.6095 14.5772L11.5404 16.1818Z" fill="#E27525"/>
<path d="M14.0266 17.4689L11.3992 16.1934L11.6108 17.9038V18.6268L14.0266 17.4689Z" fill="#D5BFB2"/>
<path d="M11.5928 18.698C11.5864 18.7011 11.5794 18.7027 11.5722 18.7027C11.5651 18.7027 11.5581 18.7011 11.5517 18.698C11.5399 18.6921 11.5302 18.6827 11.5239 18.6712C11.5176 18.6596 11.515 18.6464 11.5164 18.6333V17.9103L11.3048 16.2175C11.3016 16.2042 11.3027 16.1901 11.308 16.1774C11.3132 16.1648 11.3224 16.1541 11.3342 16.147C11.3456 16.1396 11.3588 16.1357 11.3724 16.1357C11.3859 16.1357 11.3992 16.1396 11.4106 16.147L14.0321 17.4225C14.0447 17.428 14.0554 17.437 14.0629 17.4485C14.0705 17.46 14.0745 17.4734 14.0745 17.4871C14.0745 17.5009 14.0705 17.5143 14.0629 17.5258C14.0554 17.5373 14.0447 17.5463 14.0321 17.5518L11.5987 18.7274L11.5928 18.698ZM11.487 16.3468L11.6869 17.9162V18.5334L13.8558 17.4695L11.487 16.3468Z" fill="#D5BFB2"/>
<path d="M5.87927 17.4688L8.32446 18.6444V17.9214L8.53019 16.2109L5.87927 17.4688Z" fill="#D5BFB2"/>
<path d="M8.32542 18.6976H8.29015L5.84496 17.522C5.83237 17.5165 5.82166 17.5075 5.81414 17.496C5.80662 17.4845 5.80261 17.4711 5.80261 17.4574C5.80261 17.4436 5.80662 17.4302 5.81414 17.4187C5.82166 17.4072 5.83237 17.3982 5.84496 17.3927L8.48412 16.1172C8.49429 16.1096 8.50667 16.1055 8.51938 16.1055C8.5321 16.1055 8.54448 16.1096 8.55465 16.1172C8.56148 16.1277 8.56512 16.14 8.56512 16.1525C8.56512 16.165 8.56148 16.1773 8.55465 16.1878L8.34893 17.8923V18.6036C8.35033 18.6166 8.3477 18.6298 8.3414 18.6414C8.3351 18.653 8.32542 18.6623 8.31366 18.6682C8.31746 18.6721 8.32046 18.6767 8.32248 18.6817C8.32449 18.6868 8.32549 18.6922 8.32542 18.6976ZM6.05068 17.4691L8.23137 18.5095V17.9217L8.42534 16.3406L6.05068 17.4691Z" fill="#D5BFB2"/>
<path d="M8.36628 13.355L6.17972 12.7143C6.16516 12.7099 6.15239 12.701 6.14332 12.6888C6.13424 12.6766 6.12933 12.6619 6.12933 12.6467C6.12933 12.6315 6.13424 12.6167 6.14332 12.6045C6.15239 12.5923 6.16516 12.5834 6.17972 12.5791L7.71972 11.8679C7.7282 11.8639 7.73738 11.8617 7.74671 11.8614C7.75605 11.861 7.76537 11.8625 7.77412 11.8658C7.78287 11.8691 7.79088 11.8741 7.79768 11.8805C7.80449 11.8869 7.80996 11.8946 7.81376 11.9031L8.46033 13.255C8.46704 13.2666 8.47057 13.2798 8.47057 13.2932C8.47057 13.3067 8.46704 13.3198 8.46033 13.3314C8.44916 13.3448 8.43404 13.3543 8.41714 13.3585C8.40023 13.3627 8.38243 13.3615 8.36628 13.355ZM6.39132 12.6202L8.23109 13.161L7.69033 12.0266L6.39132 12.6202Z" fill="#161616"/>
<path d="M11.5459 13.3553C11.5347 13.3547 11.5236 13.3517 11.5135 13.3467C11.5034 13.3416 11.4944 13.3345 11.4872 13.3259C11.4805 13.3142 11.4769 13.3011 11.4769 13.2877C11.4769 13.2742 11.4805 13.2611 11.4872 13.2495L12.1337 11.8975C12.1425 11.8813 12.1569 11.8688 12.1741 11.8623C12.1914 11.8558 12.2105 11.8558 12.2278 11.8623L13.7795 12.5735C13.7929 12.5795 13.804 12.5896 13.8113 12.6022C13.8187 12.6148 13.822 12.6295 13.8207 12.644C13.8199 12.659 13.8143 12.6734 13.8048 12.685C13.7953 12.6967 13.7823 12.705 13.7678 12.7087L11.5636 13.3553H11.5459ZM12.2219 12.0269L11.6811 13.1613L13.5209 12.6499L12.2219 12.0269Z" fill="#161616"/>
<path d="M5.87991 17.4689L6.26197 14.3301L3.83441 14.4006L5.87991 17.4689Z" fill="#CC6228"/>
<path d="M5.87939 17.5396C5.85482 17.5387 5.83162 17.5281 5.81473 17.5102L3.76924 14.442C3.7619 14.4306 3.758 14.4173 3.758 14.4038C3.758 14.3902 3.7619 14.377 3.76924 14.3656C3.77446 14.3541 3.78267 14.3442 3.79301 14.337C3.80334 14.3297 3.81544 14.3254 3.82802 14.3244L6.25557 14.2539C6.25557 14.2539 6.3026 14.2539 6.31435 14.2539C6.31849 14.2621 6.32064 14.2712 6.32064 14.2804C6.32064 14.2895 6.31849 14.2986 6.31435 14.3068L5.94992 17.4691C5.95018 17.4844 5.945 17.4993 5.93532 17.5111C5.92563 17.523 5.91206 17.531 5.89702 17.5338L5.87939 17.5396ZM3.96909 14.4655L5.82649 17.2634L6.17916 14.4067L3.96909 14.4655Z" fill="#CC6228"/>
<path d="M13.65 14.3301L14.0262 17.4689L16.0776 14.4006L13.65 14.3301Z" fill="#CC6228"/>
<path d="M14.0263 17.5391C14.0118 17.5354 13.9988 17.5271 13.9893 17.5155C13.9797 17.5038 13.9742 17.4895 13.9734 17.4745L13.5972 14.3357C13.5931 14.3275 13.5909 14.3184 13.5909 14.3092C13.5909 14.3 13.5931 14.291 13.5972 14.2828C13.6065 14.2786 13.6165 14.2764 13.6266 14.2764C13.6368 14.2764 13.6468 14.2786 13.656 14.2828L16.0836 14.3533C16.0967 14.3549 16.1094 14.3594 16.1206 14.3665C16.1318 14.3736 16.1412 14.3832 16.1482 14.3945C16.1539 14.4064 16.1569 14.4194 16.1569 14.4327C16.1569 14.4459 16.1539 14.459 16.1482 14.4709L14.1086 17.5097C14.1002 17.5232 14.0875 17.5334 14.0726 17.5387C14.0576 17.544 14.0413 17.5442 14.0263 17.5391ZM13.7324 14.4062L14.0733 17.2629L15.9484 14.465L13.7324 14.4062Z" fill="#CC6228"/>
<path d="M15.4906 10.874L11.141 11.068L11.5466 13.3016L12.1873 11.9555L13.739 12.6609L15.4906 10.874Z" fill="#CC6228"/>
<path d="M11.5457 13.3548C11.5299 13.3537 11.5149 13.3473 11.5032 13.3366C11.4914 13.3259 11.4836 13.3116 11.481 13.296L11.0813 11.0683C11.0767 11.0592 11.0743 11.0491 11.0743 11.0389C11.0743 11.0287 11.0767 11.0186 11.0813 11.0095C11.0874 11.001 11.0953 10.9939 11.1045 10.9889C11.1136 10.9838 11.1238 10.9808 11.1342 10.9801L15.4897 10.7803C15.5045 10.7816 15.5187 10.7865 15.531 10.7948C15.5434 10.803 15.5534 10.8142 15.5603 10.8273C15.5684 10.8384 15.5728 10.8518 15.5728 10.8655C15.5728 10.8792 15.5684 10.8926 15.5603 10.9037L13.7969 12.6965C13.7844 12.7065 13.7689 12.7119 13.7528 12.7119C13.7368 12.7119 13.7213 12.7065 13.7087 12.6965L12.2275 12.0205L11.6397 13.3019C11.6378 13.312 11.6337 13.3215 11.6277 13.3299C11.6217 13.3382 11.614 13.3452 11.605 13.3502C11.5961 13.3552 11.5861 13.3583 11.5759 13.3591C11.5656 13.3598 11.5553 13.3584 11.5457 13.3548ZM11.2283 11.1153L11.5751 13.0433L12.1217 11.8677C12.1305 11.8514 12.1449 11.8389 12.1621 11.8324C12.1794 11.8259 12.1985 11.8259 12.2158 11.8324L13.7205 12.5201L15.284 10.9566L11.2283 11.1153Z" fill="#CC6228"/>
<path d="M6.18535 12.6609L7.72535 11.9555L8.36604 13.3016L8.77161 11.068L4.422 10.874L6.18535 12.6609Z" fill="#CC6228"/>
<path d="M8.36605 13.3548C8.35199 13.3537 8.3385 13.3487 8.32709 13.3404C8.31567 13.3321 8.30678 13.3208 8.3014 13.3077L7.71361 12.0264L6.23827 12.7023C6.22669 12.7119 6.21214 12.7171 6.19713 12.7171C6.18211 12.7171 6.16756 12.7119 6.15598 12.7023L4.39262 10.9096C4.3845 10.8985 4.38013 10.8851 4.38013 10.8714C4.38013 10.8576 4.3845 10.8442 4.39262 10.8332C4.39988 10.8203 4.41004 10.8094 4.42229 10.8012C4.43454 10.7931 4.44854 10.7879 4.46316 10.7861L8.81865 10.986C8.81939 10.9918 8.81939 10.9978 8.81865 11.0036C8.82329 11.0127 8.82572 11.0228 8.82572 11.033C8.82572 11.0432 8.82329 11.0533 8.81865 11.0624L8.41896 13.2901C8.41635 13.3057 8.40856 13.32 8.39683 13.3307C8.3851 13.3414 8.37011 13.3478 8.3543 13.3489L8.36605 13.3548ZM7.72537 11.8559C7.73896 11.8558 7.7523 11.8596 7.76377 11.8669C7.77524 11.8742 7.78436 11.8847 7.79002 11.897L8.33667 13.0726L8.68346 11.1447L4.60423 10.9625L6.19713 12.5789L7.69598 11.8912L7.72537 11.8559Z" fill="#CC6228"/>
<path d="M4.422 10.874L6.24413 14.4007L6.18535 12.6374L4.422 10.874Z" fill="#E27525"/>
<path d="M6.2446 14.5304C6.23101 14.5305 6.21767 14.5267 6.2062 14.5194C6.19473 14.5121 6.18561 14.5016 6.17995 14.4892L4.35781 10.9331C4.34666 10.9212 4.34045 10.9054 4.34045 10.889C4.34045 10.8727 4.34666 10.8569 4.35781 10.845C4.36437 10.8384 4.37215 10.8332 4.38073 10.8296C4.3893 10.8261 4.39849 10.8242 4.40777 10.8242C4.41706 10.8242 4.42625 10.8261 4.43482 10.8296C4.4434 10.8332 4.45118 10.8384 4.45774 10.845L6.22109 12.6083C6.22616 12.6256 6.22616 12.644 6.22109 12.6612L6.28575 14.4246C6.28523 14.4419 6.27927 14.4586 6.26872 14.4723C6.25817 14.486 6.24356 14.4961 6.22697 14.501L6.2446 14.5304ZM4.70461 11.2682L6.16231 14.1013L6.11529 12.6906L4.70461 11.2682Z" fill="#E27525"/>
<path d="M13.7384 12.6608L13.6679 14.4242L15.49 10.8975L13.7384 12.6608Z" fill="#E27525"/>
<path d="M13.668 14.5299C13.6514 14.525 13.6368 14.515 13.6263 14.5012C13.6157 14.4875 13.6098 14.4708 13.6093 14.4535L13.6798 12.6902C13.6753 12.6728 13.6753 12.6546 13.6798 12.6373L15.4431 10.8739C15.4578 10.8638 15.4753 10.8584 15.4931 10.8584C15.511 10.8584 15.5284 10.8638 15.5431 10.8739C15.5527 10.8877 15.5578 10.9041 15.5578 10.9209C15.5578 10.9378 15.5527 10.9542 15.5431 10.968L13.7151 14.5241C13.7007 14.5319 13.6839 14.534 13.668 14.5299ZM13.8091 12.7196L13.7562 14.1302L15.208 11.2971L13.8091 12.7196Z" fill="#E27525"/>
<path d="M8.77178 11.0684L8.36621 13.3019L8.87758 15.9352L8.99514 12.4614L8.77178 11.0684Z" fill="#E27525"/>
<path d="M8.87787 16.0108C8.86103 16.011 8.84466 16.0053 8.83173 15.9945C8.81879 15.9837 8.81014 15.9686 8.80733 15.952L8.29596 13.3129L8.70153 11.0793C8.70434 11.0627 8.71299 11.0476 8.72592 11.0369C8.73886 11.0261 8.75523 11.0203 8.77207 11.0205C8.78937 11.021 8.80606 11.027 8.81978 11.0375C8.8335 11.0481 8.84354 11.0627 8.84848 11.0793L9.06596 12.4723L8.95428 15.9638C8.95292 15.982 8.94505 15.9992 8.93211 16.0122C8.91916 16.0251 8.902 16.033 8.88374 16.0343L8.87787 16.0108ZM8.44291 13.3011L8.81909 15.282L8.90726 12.4606L8.75443 11.5084L8.44291 13.3011Z" fill="#E27525"/>
<path d="M11.17 11.0684L10.9584 12.4555L11.0642 15.9352L11.5756 13.3019L11.17 11.0684Z" fill="#E27525"/>
<path d="M11.0346 16.0114C11.0164 16.0101 10.9992 16.0022 10.9862 15.9893C10.9733 15.9763 10.9654 15.9592 10.9641 15.9409L10.8583 12.4612L11.0758 11.0564C11.0777 11.0463 11.0818 11.0368 11.0878 11.0284C11.0938 11.0201 11.1015 11.0131 11.1105 11.0081C11.1194 11.003 11.1294 11 11.1396 10.9992C11.1499 10.9984 11.1602 10.9999 11.1698 11.0035C11.1866 11.0033 11.203 11.0091 11.2159 11.0198C11.2289 11.0306 11.2375 11.0457 11.2403 11.0623L11.6459 13.2959L11.1345 15.935C11.1369 15.9478 11.1357 15.9611 11.131 15.9732C11.1263 15.9854 11.1184 15.996 11.108 16.0039C11.0977 16.0118 11.0853 16.0167 11.0724 16.018C11.0594 16.0194 11.0464 16.0171 11.0346 16.0114ZM11.1698 11.5149L11.0229 12.4671L11.111 15.2767L11.4931 13.3017L11.1698 11.5149Z" fill="#E27525"/>
<path d="M11.5462 13.3018L11.0349 15.9351L11.3993 16.1937L13.6681 14.4304L13.7387 12.667L11.5462 13.3018Z" fill="#F5841F"/>
<path d="M11.3994 16.2935H11.3583L10.988 16.0349C10.9763 16.0263 10.9674 16.0145 10.9622 16.001C10.957 15.9874 10.9557 15.9727 10.9586 15.9585L11.4758 13.3252C11.4766 13.3117 11.4815 13.2988 11.4899 13.2883C11.4983 13.2777 11.5099 13.2701 11.5229 13.2664L13.7153 12.6258C13.7255 12.6214 13.7365 12.6191 13.7476 12.6191C13.7587 12.6191 13.7697 12.6214 13.78 12.6258C13.7876 12.6466 13.7876 12.6695 13.78 12.6904L13.7094 14.4538C13.7133 14.4631 13.7153 14.4731 13.7153 14.4832C13.7153 14.4932 13.7133 14.5032 13.7094 14.5125L11.4406 16.2759C11.4294 16.2865 11.4148 16.2927 11.3994 16.2935ZM11.1173 15.9291L11.3994 16.129L13.5977 14.4185L13.6565 12.7845L11.611 13.3722L11.1173 15.9291Z" fill="#F5841F"/>
<path d="M6.18555 12.6611L6.24433 14.4245L8.51318 16.1878L8.8776 15.9292L8.36623 13.2959L6.18555 12.6611Z" fill="#F5841F"/>
<path d="M8.51291 16.2935C8.49762 16.2984 8.48117 16.2984 8.46589 16.2935L6.19704 14.5301C6.19148 14.5109 6.19148 14.4905 6.19704 14.4713L6.13238 12.708C6.12474 12.6871 6.12474 12.6642 6.13238 12.6433C6.1426 12.639 6.15359 12.6367 6.16471 12.6367C6.17582 12.6367 6.18682 12.639 6.19704 12.6433L8.3836 13.284C8.39694 13.2881 8.40892 13.2957 8.41824 13.306C8.42757 13.3164 8.43388 13.3291 8.4365 13.3428L8.94787 15.9761C8.95072 15.9903 8.94948 16.005 8.94427 16.0186C8.93907 16.0321 8.93012 16.0439 8.91848 16.0525L8.54818 16.3111L8.51291 16.2935ZM6.31459 14.4184L8.51291 16.1289L8.80092 15.9291L8.30718 13.3546L6.26169 12.7668L6.31459 14.4184Z" fill="#F5841F"/>
<path d="M11.5925 18.6443V17.9213L11.3986 17.7509H8.45965L8.27156 17.9213V18.6443L5.87927 17.4688L6.73156 18.1682L8.49492 19.3438H11.4691L13.2325 18.1682L14.026 17.4688L11.5925 18.6443Z" fill="#C0AC9D"/>
<path d="M11.4407 19.4377H8.46655H8.4254L6.69144 18.2622L5.83327 17.5568C5.8217 17.5439 5.81531 17.5272 5.81531 17.5098C5.81531 17.4925 5.8217 17.4757 5.83327 17.4628C5.84367 17.4484 5.85846 17.4378 5.87541 17.4325C5.89236 17.4272 5.91057 17.4275 5.92731 17.4334L8.27846 18.5443V17.9565C8.27906 17.9452 8.28197 17.9342 8.28703 17.9241C8.29209 17.914 8.29917 17.905 8.30785 17.8977L8.49594 17.7332C8.51106 17.7273 8.52784 17.7273 8.54296 17.7332H11.4819C11.497 17.7273 11.5138 17.7273 11.5289 17.7332L11.7288 17.8977C11.7355 17.9168 11.7355 17.9375 11.7288 17.9565V18.5443L14.0799 17.4334C14.0967 17.4284 14.1147 17.4285 14.1314 17.4337C14.1482 17.439 14.163 17.4491 14.174 17.4628C14.1855 17.4757 14.1919 17.4925 14.1919 17.5098C14.1919 17.5272 14.1855 17.5439 14.174 17.5568L13.3275 18.2622L11.5642 19.4377H11.4407ZM8.50182 19.2908H11.4407L13.163 18.1152L13.5509 17.7919L11.6465 18.6971C11.6363 18.7048 11.6239 18.7089 11.6112 18.7089C11.5985 18.7089 11.5861 18.7048 11.5759 18.6971C11.5642 18.6912 11.5545 18.6819 11.5482 18.6703C11.5419 18.6588 11.5393 18.6456 11.5407 18.6325V17.9448L11.3878 17.8213H8.52533L8.38426 17.9448V18.6325C8.38566 18.6456 8.38303 18.6588 8.37673 18.6703C8.37043 18.6819 8.36075 18.6912 8.34899 18.6971C8.33882 18.7048 8.32644 18.7089 8.31373 18.7089C8.30101 18.7089 8.28863 18.7048 8.27846 18.6971L6.37991 17.7978L6.76785 18.1152L8.50182 19.2908Z" fill="#C0AC9D"/>
<path d="M8.36623 13.3021L6.18555 12.6614L7.72555 11.9561L8.36623 13.3021Z" fill="#161616"/>
<path d="M11.5458 13.3021L12.1865 11.9561L13.7382 12.6614L11.5458 13.3021Z" fill="#161616"/>
<path d="M11.3988 16.194L11.0344 15.9353H8.87719L8.51276 16.194L8.30704 17.9044L8.49513 17.734H11.4341L11.628 17.9044L11.3988 16.194Z" fill="#161616"/>
<path d="M8.30755 17.9744H8.27229C8.26008 17.966 8.25035 17.9544 8.24415 17.941C8.23794 17.9275 8.23548 17.9127 8.23702 17.8979L8.44274 16.1934C8.44296 16.1828 8.44575 16.1725 8.45087 16.1633C8.45599 16.154 8.46329 16.1462 8.47213 16.1405L8.83656 15.8818H8.87771H11.0349H11.076L11.4404 16.1405C11.4493 16.1462 11.4566 16.154 11.4617 16.1633C11.4668 16.1725 11.4696 16.1828 11.4698 16.1934L11.6873 17.8979C11.6876 17.9131 11.684 17.9282 11.6768 17.9416C11.6696 17.9549 11.659 17.9662 11.6462 17.9744C11.6342 17.983 11.6198 17.9876 11.605 17.9876C11.5903 17.9876 11.5759 17.983 11.5639 17.9744L11.3875 17.8274H8.52503L8.35458 17.9744C8.33946 17.9803 8.32267 17.9803 8.30755 17.9744ZM8.49565 17.6628H11.4346C11.4497 17.6569 11.4665 17.6569 11.4816 17.6628L11.5345 17.704L11.3464 16.2169L11.029 15.9935H8.90122L8.58381 16.2169L8.4016 17.704L8.44862 17.6628C8.46374 17.6569 8.48053 17.6569 8.49565 17.6628Z" fill="#161616"/>
<path d="M19.1873 7.17151L19.8398 4.0151L18.8582 1.07617L11.3992 6.60724L14.2734 9.02891L18.3233 10.2045L19.2167 9.15823L18.8111 8.88197L19.3989 8.29418L18.9287 7.92388L19.5165 7.45365L19.1873 7.17151Z" fill="#763E1A"/>
<path d="M18.3228 10.2804L14.267 9.10484L11.3516 6.66553C11.3444 6.6466 11.3444 6.62567 11.3516 6.60675C11.3514 6.5953 11.3539 6.58397 11.3591 6.57373C11.3642 6.56349 11.3717 6.55465 11.381 6.54797L18.8106 1.01103C18.8199 1.00388 18.8313 1 18.843 1C18.8547 1 18.866 1.00388 18.8753 1.01103C18.8866 1.01387 18.897 1.01975 18.9053 1.02803C18.9136 1.03631 18.9195 1.04669 18.9223 1.05805L19.898 3.99698C19.9008 4.00857 19.9008 4.02065 19.898 4.03225L19.2573 7.14163L19.6276 7.42377C19.6373 7.4302 19.6453 7.43894 19.6508 7.4492C19.6563 7.45945 19.6592 7.47091 19.6592 7.48255C19.6592 7.49419 19.6563 7.50565 19.6508 7.5159C19.6453 7.52616 19.6373 7.53489 19.6276 7.54133L19.081 7.95278L19.4807 8.2643C19.4895 8.27006 19.4968 8.27788 19.502 8.2871C19.5071 8.29632 19.5099 8.30666 19.5101 8.31721C19.5156 8.3364 19.5156 8.35678 19.5101 8.37598L18.9576 8.8756L19.275 9.10484C19.2813 9.12191 19.2813 9.14067 19.275 9.15774C19.2808 9.17489 19.2808 9.19349 19.275 9.21064L18.3815 10.2569C18.374 10.2648 18.3648 10.271 18.3547 10.275C18.3446 10.2791 18.3337 10.2809 18.3228 10.2804ZM14.3082 8.96377L18.2992 10.1393L19.1104 9.19301L18.8106 8.94614C18.8019 8.93888 18.7949 8.92992 18.7898 8.91981C18.7847 8.90969 18.7818 8.89865 18.7812 8.88736C18.7761 8.87842 18.7734 8.86829 18.7734 8.85797C18.7734 8.84765 18.7761 8.83751 18.7812 8.82858L19.3338 8.32308L18.9282 8.01156C18.9189 8.00488 18.9113 7.99604 18.9062 7.9858C18.9011 7.97556 18.8986 7.96423 18.8988 7.95278C18.8994 7.94149 18.9023 7.93044 18.9074 7.92033C18.9124 7.91021 18.9195 7.90125 18.9282 7.894L19.4748 7.48255L19.1457 7.2298C19.139 7.21819 19.1354 7.20501 19.1354 7.1916C19.1354 7.17818 19.139 7.16501 19.1457 7.15339L19.7922 4.02049L18.8106 1.205L11.5162 6.61263L14.3082 8.96377Z" fill="#763E1A"/>
<path d="M0.0773315 4.01409L0.729774 7.1705L0.312446 7.47615L0.935499 7.94638L0.46527 8.31668L1.08245 8.90447L0.694507 9.18661L1.58794 10.2094L5.64366 9.03378L8.51206 6.6121L1.05306 1.08691L0.0773315 4.01409Z" fill="#763E1A"/>
<path d="M1.58914 10.2814C1.57983 10.2853 1.56984 10.2873 1.55976 10.2873C1.54967 10.2873 1.53968 10.2853 1.53037 10.2814L0.636932 9.24101C0.63111 9.22385 0.63111 9.20526 0.636932 9.1881C0.641673 9.1681 0.651843 9.1498 0.666321 9.1352L0.983726 8.90597L0.413573 8.37696C0.408022 8.35776 0.408022 8.33738 0.413573 8.31818C0.409844 8.30986 0.407916 8.30085 0.407916 8.29173C0.407916 8.28261 0.409844 8.2736 0.413573 8.26528L0.813268 7.95375L0.260749 7.5423C0.25105 7.53587 0.243093 7.52714 0.237589 7.51688C0.232085 7.50662 0.229204 7.49517 0.229204 7.48353C0.229204 7.47189 0.232085 7.46043 0.237589 7.45017C0.243093 7.43992 0.25105 7.43118 0.260749 7.42475L0.64281 7.14261L0.00212351 4.03322C-0.000626456 4.02163 -0.000626456 4.00955 0.00212351 3.99796L0.977848 1.05903C0.98114 1.04689 0.987897 1.03599 0.997292 1.02763C1.00669 1.01928 1.01831 1.01385 1.03075 1.012C1.04001 1.00485 1.05138 1.00098 1.06308 1.00098C1.07478 1.00098 1.08614 1.00485 1.0954 1.012L8.55441 6.54895C8.56445 6.55532 8.57288 6.56395 8.579 6.57416C8.58512 6.58436 8.58878 6.59586 8.58967 6.60773C8.59595 6.62681 8.59595 6.64741 8.58967 6.6665L5.69189 9.08818L1.63617 10.2638L1.58914 10.2814ZM0.801512 9.18223L1.61266 10.1286L5.6096 8.95299L8.3957 6.60185L1.08953 1.20597L0.14907 4.02147L0.801512 7.15437C0.808852 7.16576 0.812756 7.17902 0.812756 7.19257C0.812756 7.20612 0.808852 7.21939 0.801512 7.23078L0.437085 7.47765L0.983726 7.8891C0.9924 7.89635 0.999486 7.90531 1.00454 7.91543C1.0096 7.92554 1.01252 7.93659 1.01311 7.94788C1.01335 7.95932 1.0108 7.97066 1.00568 7.9809C1.00056 7.99114 0.993027 7.99998 0.983726 8.00666L0.589909 8.32406L1.14243 8.82956C1.14759 8.83849 1.1503 8.84863 1.1503 8.85894C1.1503 8.86926 1.14759 8.8794 1.14243 8.88833C1.14183 8.89962 1.13891 8.91067 1.13386 8.92078C1.1288 8.9309 1.12171 8.93986 1.11304 8.94711L0.801512 9.18223Z" fill="#763E1A"/>
<path d="M18.3232 10.2098L14.2733 9.03418L15.49 10.8798L13.6679 14.4065H16.0778H19.6868L18.3232 10.2098Z" fill="#F5841F"/>
<path d="M13.6679 14.5299C13.6552 14.5294 13.6427 14.526 13.6315 14.5199C13.6202 14.5138 13.6106 14.5051 13.6033 14.4946C13.5976 14.4837 13.5947 14.4716 13.5947 14.4594C13.5947 14.4471 13.5976 14.435 13.6033 14.4241L15.4078 10.8974L14.2322 9.09287C14.2236 9.08088 14.219 9.06649 14.219 9.05173C14.219 9.03697 14.2236 9.02258 14.2322 9.01058C14.2413 8.99786 14.254 8.98822 14.2688 8.98297C14.2835 8.97771 14.2994 8.97709 14.3145 8.9812L18.3702 10.1568C18.3816 10.1596 18.392 10.1655 18.4003 10.1738C18.4085 10.1821 18.4144 10.1924 18.4173 10.2038L19.7809 14.3947C19.7848 14.4057 19.7859 14.4174 19.7842 14.4289C19.7824 14.4404 19.7779 14.4513 19.7709 14.4607C19.7639 14.47 19.7547 14.4774 19.7442 14.4823C19.7336 14.4872 19.722 14.4894 19.7104 14.4887H16.0779L13.6679 14.5181V14.5299ZM14.4438 9.18692L15.5547 10.8621C15.5604 10.873 15.5634 10.8851 15.5634 10.8974C15.5634 10.9097 15.5604 10.9218 15.5547 10.9326L13.7914 14.3829L16.0779 14.3536H19.6046L18.2938 10.2978L14.4438 9.18692Z" fill="#F5841F"/>
<path d="M5.64506 9.02832L1.58933 10.2039L0.237427 14.4007H3.83468H6.2446L4.42246 10.874L5.64506 9.02832Z" fill="#F5841F"/>
<path d="M6.24405 14.5298L3.83412 14.5004H0.236875C0.227653 14.5046 0.217629 14.5068 0.207485 14.5068C0.197342 14.5068 0.187317 14.5046 0.178096 14.5004C0.172421 14.4906 0.169434 14.4794 0.169434 14.4681C0.169434 14.4567 0.172421 14.4456 0.178096 14.4358L1.53 10.2448C1.53285 10.2335 1.53872 10.2231 1.54701 10.2148C1.55529 10.2065 1.56566 10.2007 1.57703 10.1978L5.63275 9.02225C5.64777 9.01718 5.66406 9.01733 5.67899 9.02266C5.69392 9.028 5.70662 9.0382 5.71504 9.05164C5.72365 9.06363 5.72828 9.07802 5.72828 9.09278C5.72828 9.10754 5.72365 9.12193 5.71504 9.13393L4.53947 10.9384L6.34397 14.4651C6.34964 14.476 6.3526 14.4881 6.3526 14.5004C6.3526 14.5127 6.34964 14.5248 6.34397 14.5357C6.33748 14.5427 6.32951 14.5482 6.32063 14.5518C6.31175 14.5554 6.30218 14.557 6.29262 14.5564C6.28305 14.5559 6.27374 14.5532 6.26534 14.5486C6.25694 14.544 6.24967 14.5376 6.24405 14.5298ZM0.366187 14.3535H3.83412L6.12649 14.3829L4.36313 10.9326C4.35747 10.9217 4.35451 10.9096 4.35451 10.8973C4.35451 10.885 4.35747 10.8729 4.36313 10.862L5.46817 9.15744L1.64756 10.2684L0.366187 14.3535Z" fill="#F5841F"/>
<path d="M11.17 11.068L11.4286 6.60666L12.6042 3.43262H7.33765L8.51322 6.60666L8.77184 11.068L8.87177 12.4728V15.9348H11.0289V12.4728L11.17 11.068Z" fill="#F5841F"/>
<path d="M11.0342 16.0115H8.87706C8.86728 16.0115 8.8576 16.0095 8.84864 16.0056C8.83967 16.0017 8.83162 15.9959 8.82499 15.9888C8.81835 15.9816 8.81329 15.9731 8.81011 15.9638C8.80693 15.9546 8.80571 15.9448 8.80652 15.935V12.473L8.7066 11.0741L8.44798 6.62452L7.27241 3.45635C7.26893 3.43536 7.27373 3.41383 7.28578 3.3963C7.29784 3.37876 7.31622 3.36658 7.33706 3.3623H12.5742C12.5857 3.36367 12.5967 3.36742 12.6066 3.37332C12.6165 3.37922 12.6251 3.38714 12.6317 3.39656C12.6384 3.40599 12.643 3.4167 12.6452 3.42801C12.6475 3.43932 12.6473 3.45098 12.6448 3.46223L11.4692 6.63039L11.2106 11.0799L11.1106 12.4847V15.9409C11.1107 15.9507 11.1087 15.9604 11.1048 15.9693C11.1009 15.9783 11.0951 15.9864 11.088 15.993C11.0808 15.9996 11.0723 16.0047 11.063 16.0079C11.0538 16.0111 11.044 16.0123 11.0342 16.0115ZM8.95347 15.8645H10.9578V12.473L11.0519 11.0682L11.3164 6.601L12.4567 3.52101H7.44286L8.58317 6.58337L8.84179 11.0505L8.94172 12.4495L8.95347 15.8645Z" fill="#F5841F"/>
</g>
</g>
<defs>
<clipPath id="clip0_3_2625">
<rect width="20" height="20" fill="white"/>
</clipPath>
<clipPath id="clip1_3_2625">
<rect width="20" height="20" fill="white"/>
</clipPath>
</defs>
</svg>
