<svg width="20" height="20" viewBox="0 0 20 20" fill="none" xmlns="http://www.w3.org/2000/svg">
<g clip-path="url(#clip0_3_2687)">
<g clip-path="url(#clip1_3_2687)">
<g clip-path="url(#clip2_3_2687)">
<mask id="mask0_3_2687" style="mask-type:luminance" maskUnits="userSpaceOnUse" x="0" y="0" width="20" height="20">
<path d="M20 0H0V20H20V0Z" fill="white"/>
</mask>
<g mask="url(#mask0_3_2687)">
<path d="M4.09442 6.34459C7.35599 3.21847 12.644 3.21847 15.9056 6.34459L16.2981 6.72082C16.4612 6.87713 16.4612 7.13055 16.2981 7.28686L14.9554 8.57388C14.8738 8.65203 14.7416 8.65203 14.6601 8.57388L14.1199 8.05614C11.8445 5.87528 8.15547 5.87528 5.88012 8.05614L5.30164 8.6106C5.2201 8.68875 5.0879 8.68875 5.00636 8.6106L3.66357 7.32358C3.50049 7.16727 3.50049 6.91385 3.66357 6.75754L4.09442 6.34459ZM18.6826 9.00629L19.8777 10.1517C20.0408 10.308 20.0408 10.5615 19.8777 10.7178L14.489 15.8828C14.3259 16.0391 14.0615 16.0391 13.8984 15.8828L10.0739 12.217C10.0331 12.1779 9.96699 12.1779 9.92622 12.217L6.10172 15.8828C5.93865 16.0391 5.67424 16.0391 5.51116 15.8828L0.122309 10.7177C-0.0407697 10.5614 -0.0407697 10.308 0.122309 10.1517L1.31739 9.00622C1.48047 8.84991 1.74487 8.84991 1.90795 9.00622L5.73258 12.672C5.77335 12.7111 5.83945 12.7111 5.88022 12.672L9.70466 9.00622C9.86773 8.84991 10.1321 8.8499 10.2952 9.00621L14.1198 12.672C14.1606 12.7111 14.2267 12.7111 14.2675 12.672L18.0921 9.00629C18.2551 8.84998 18.5195 8.84998 18.6826 9.00629Z" fill="#3B99FC"/>
</g>
</g>
</g>
</g>
<defs>
<clipPath id="clip0_3_2687">
<rect width="20" height="20" fill="white"/>
</clipPath>
<clipPath id="clip1_3_2687">
<rect width="20" height="20" fill="white"/>
</clipPath>
<clipPath id="clip2_3_2687">
<rect width="20" height="20" fill="white"/>
</clipPath>
</defs>
</svg>
