<svg width="20" height="21" viewBox="0 0 20 21" fill="none" xmlns="http://www.w3.org/2000/svg">
<g clip-path="url(#clip0_3_222)">
<g clip-path="url(#clip1_3_222)">
<path d="M6.57227 5C7.27425 5.00005 7.95923 5.21713 8.53225 5.62207L8.93362 5.90625C9.24544 6.1266 9.61802 6.24511 10 6.24512C10.382 6.24512 10.7546 6.1266 11.0664 5.90625L11.4678 5.62207C12.0408 5.21712 12.7258 5.00005 13.4278 5H13.918C14.2414 5 14.5683 5.02 14.8731 5.12793C16.7791 5.80312 18.0899 8.27148 17.9953 13.8691C17.9762 14.9971 17.7118 16.2438 16.6926 16.7305C16.3752 16.882 16.0031 16.9833 15.5793 16.9834C15.0705 16.9834 14.6656 16.8379 14.3538 16.6338C14.0269 16.4198 13.7391 16.1412 13.4514 15.8633C13.0957 15.5197 12.7395 15.1762 12.3107 14.9541C11.8437 14.7124 11.325 14.5859 10.799 14.5859H9.20134C8.67531 14.5859 8.15664 14.7124 7.68963 14.9541C7.2608 15.1762 6.90462 15.5197 6.54902 15.8633C6.2613 16.1412 5.97355 16.4198 5.6467 16.6338C5.33483 16.8379 4.92992 16.9834 4.42111 16.9834C3.99731 16.9833 3.62528 16.882 3.30783 16.7305C2.28867 16.2438 2.02417 14.9971 2.00504 13.8691C1.91017 8.27148 3.22097 5.80312 5.12696 5.12793C5.43171 5.02 5.7587 5 6.08204 5H6.57227ZM6.40924 8.39844C6.07796 8.39854 5.80964 8.66721 5.80964 8.99805L5.80966 9.59668H5.20907C4.87787 9.59689 4.60947 9.86552 4.60948 10.1963C4.60969 10.5269 4.87804 10.7947 5.2091 10.7949H5.80968L5.80969 11.3945C5.80988 11.7252 6.07815 11.9931 6.40931 11.9932C6.74057 11.9932 7.0097 11.7253 7.00989 11.3945L7.00988 10.7949H7.60949C7.94072 10.7949 8.20887 10.527 8.20909 10.1963C8.20908 9.86539 7.94084 9.59668 7.60947 9.59668H7.00985L7.00984 8.99805C7.00984 8.66715 6.74061 8.39844 6.40924 8.39844ZM13.837 8.67969C12.9909 8.67969 12.3047 9.36586 12.3048 10.2119C12.305 11.0578 12.9911 11.7432 13.8371 11.7432C14.6829 11.743 15.3681 11.0577 15.3683 10.2119C15.3682 9.36596 14.6829 8.67986 13.837 8.67969Z" fill="white"/>
</g>
</g>
<defs>
<clipPath id="clip0_3_222">
<rect width="20" height="21" fill="white" transform="matrix(1 0 1.74533e-05 1 0 0)"/>
</clipPath>
<clipPath id="clip1_3_222">
<rect width="20" height="21" fill="white" transform="matrix(1 0 1.74533e-05 1 0 0)"/>
</clipPath>
</defs>
</svg>
