<svg width="20" height="20" viewBox="0 0 20 20" fill="none" xmlns="http://www.w3.org/2000/svg">
<g clip-path="url(#clip0_3_2594)">
<g clip-path="url(#clip1_3_2594)">
<path fill-rule="evenodd" clip-rule="evenodd" d="M10.0013 18.3307C14.6037 18.3307 18.3346 14.5998 18.3346 9.9974C18.3346 5.39502 14.6037 1.66406 10.0013 1.66406C5.39893 1.66406 1.66797 5.39502 1.66797 9.9974C1.66797 14.5998 5.39893 18.3307 10.0013 18.3307ZM10.6263 4.9974C10.6263 4.65222 10.3465 4.3724 10.0013 4.3724C9.65612 4.3724 9.3763 4.65222 9.3763 4.9974V5.26134C8.01761 5.50462 6.8763 6.5254 6.8763 7.91406C6.8763 9.51169 8.38695 10.6224 10.0013 10.6224C11.1484 10.6224 11.8763 11.3772 11.8763 12.0807C11.8763 12.7843 11.1484 13.5391 10.0013 13.5391C8.85423 13.5391 8.1263 12.7843 8.1263 12.0807C8.1263 11.7356 7.84648 11.4557 7.5013 11.4557C7.15612 11.4557 6.8763 11.7356 6.8763 12.0807C6.8763 13.4694 8.01761 14.4902 9.3763 14.7334V14.9974C9.3763 15.3426 9.65612 15.6224 10.0013 15.6224C10.3465 15.6224 10.6263 15.3426 10.6263 14.9974V14.7334C11.985 14.4902 13.1263 13.4694 13.1263 12.0807C13.1263 10.4831 11.6157 9.3724 10.0013 9.3724C8.85423 9.3724 8.1263 8.61762 8.1263 7.91406C8.1263 7.2105 8.85423 6.45573 10.0013 6.45573C11.1484 6.45573 11.8763 7.2105 11.8763 7.91406C11.8763 8.25924 12.1561 8.53906 12.5013 8.53906C12.8465 8.53906 13.1263 8.25924 13.1263 7.91406C13.1263 6.5254 11.985 5.50462 10.6263 5.26134V4.9974Z" fill="white" fill-opacity="0.5"/>
</g>
</g>
<defs>
<clipPath id="clip0_3_2594">
<rect width="20" height="20" fill="white"/>
</clipPath>
<clipPath id="clip1_3_2594">
<rect width="20" height="20" fill="white"/>
</clipPath>
</defs>
</svg>
