<svg width="20" height="20" viewBox="0 0 20 20" fill="none" xmlns="http://www.w3.org/2000/svg">
<g clip-path="url(#clip0_3_2605)">
<path d="M16.3399 11.2476C16.3399 11.2476 12.2875 11.2476 10.9368 11.2476C10.6077 11.2476 10.657 11.5903 10.657 11.5903V18.4637C10.657 18.4637 10.6543 18.6541 10.8523 18.6541C12.2242 18.6541 16.3398 18.6541 16.3398 18.6541C16.7684 18.6541 17.119 18.3035 17.119 17.8749V12.0267C17.1192 11.5982 16.7685 11.2476 16.3399 11.2476Z" fill="white" fill-opacity="0.5"/>
<path d="M9.34098 6.6466C9.34098 6.6466 9.34098 6.38257 9.08007 6.38257C7.51773 6.38257 2.77824 6.38257 2.77824 6.38257C2.34969 6.38257 1.99902 6.73323 1.99902 7.16173V9.594C1.99902 10.0226 2.34969 10.3732 2.77824 10.3732C2.77824 10.3732 7.53896 10.3732 9.10142 10.3732C9.34098 10.3732 9.34098 10.1654 9.34098 10.1654V6.6466Z" fill="white" fill-opacity="0.5"/>
<path d="M17.2198 6.38257C17.2198 6.38257 12.4784 6.38257 10.8979 6.38257C10.6571 6.38257 10.6571 6.61197 10.6571 6.61197V10.1702C10.6571 10.1702 10.6571 10.3732 10.9498 10.3732C12.5173 10.3732 17.2198 10.3732 17.2198 10.3732C17.6484 10.3732 17.999 10.0226 17.999 9.594V7.16173C17.999 6.73323 17.6484 6.38257 17.2198 6.38257Z" fill="white" fill-opacity="0.5"/>
<path d="M6.6907 5.80581C6.33419 5.80581 6.00856 5.77754 5.72301 5.72173C4.99773 5.58004 4.49924 5.30425 4.19905 4.87871C3.93007 4.49733 3.84776 4.02717 3.95431 3.48122C4.14097 2.52602 4.78246 2 5.76048 2C5.96746 2 6.19477 2.0239 6.43615 2.07108C7.05017 2.19103 7.83551 2.54311 8.53701 3.01288C9.72717 3.80997 9.78604 4.30551 9.72678 4.60894C9.63964 5.05481 9.22289 5.3734 8.4527 5.58299C7.93236 5.72457 7.29013 5.80581 6.6907 5.80581ZM5.76054 3.24887C5.38178 3.24887 5.2516 3.35468 5.18013 3.72067C5.12166 4.0199 5.1954 4.12442 5.21959 4.15876C5.32086 4.30239 5.58467 4.42217 5.96247 4.49591C6.16633 4.53577 6.41821 4.55683 6.69065 4.55683C7.28973 4.55683 7.81751 4.46605 8.16772 4.36676C8.19321 4.35955 8.23278 4.32941 8.19037 4.30415C7.73253 3.93117 6.8949 3.43314 6.1967 3.29672C6.03405 3.26504 5.88725 3.24887 5.76054 3.24887Z" fill="white" fill-opacity="0.5"/>
<path d="M13.3254 5.80575C12.726 5.80575 12.0837 5.72451 11.5633 5.58293C10.7931 5.3734 10.3764 5.05475 10.2893 4.60894C10.2301 4.30551 10.2888 3.80997 11.4791 3.01288C12.1805 2.54311 12.9658 2.19103 13.5799 2.07108C13.8213 2.0239 14.0486 2 14.2554 2C15.2337 2 15.8751 2.52608 16.0616 3.48128C16.1683 4.02717 16.086 4.49733 15.817 4.87871C15.5168 5.30431 15.0184 5.58004 14.2929 5.72173C14.0075 5.77742 13.6819 5.80575 13.3254 5.80575ZM11.8357 4.29637C11.7951 4.31993 11.8147 4.35711 11.8358 4.36319C12.1858 4.46384 12.7192 4.55683 13.3253 4.55683C13.5978 4.55683 13.8496 4.53577 14.0535 4.49591C14.4313 4.42211 14.6952 4.30239 14.7964 4.15876C14.8207 4.12442 14.8945 4.0199 14.8359 3.72067C14.7644 3.35468 14.6342 3.24887 14.2554 3.24887C14.1287 3.24887 13.982 3.26499 13.8193 3.29678C13.121 3.43314 12.2935 3.92334 11.8357 4.29637Z" fill="white" fill-opacity="0.5"/>
<path d="M9.06678 11.2476C7.69512 11.2476 3.65815 11.2476 3.65815 11.2476C3.2296 11.2476 2.87894 11.5982 2.87894 12.0267V17.8751C2.87894 18.3036 3.2296 18.6542 3.65815 18.6542C3.65815 18.6542 7.7796 18.6542 9.15773 18.6542C9.34103 18.6542 9.34103 18.4573 9.34103 18.4573V11.5123C9.34103 11.5123 9.34098 11.2476 9.06678 11.2476Z" fill="white" fill-opacity="0.5"/>
</g>
<defs>
<clipPath id="clip0_3_2605">
<rect width="20" height="20" fill="white"/>
</clipPath>
</defs>
</svg>
