<svg width="20" height="20" viewBox="0 0 20 20" fill="none" xmlns="http://www.w3.org/2000/svg">
<g clip-path="url(#clip0_3_3331)">
<g clip-path="url(#clip1_3_3331)">
<path d="M17.5686 8.95923L17.5675 8.95813L11.0408 2.43164C10.7626 2.15332 10.3927 2 9.99928 2C9.60585 2 9.23598 2.1532 8.95766 2.43152L2.43434 8.95471C2.43215 8.95691 2.42995 8.95923 2.42775 8.96143C1.85646 9.53601 1.85744 10.4683 2.43056 11.0414C2.6924 11.3033 3.03822 11.4551 3.40798 11.4709C3.42299 11.4724 3.43813 11.4731 3.45339 11.4731H3.71352V16.2762C3.71352 17.2267 4.48683 18 5.43752 18H7.99098C8.24977 18 8.45973 17.7902 8.45973 17.5312V13.7656C8.45973 13.3319 8.81252 12.9791 9.24623 12.9791H10.7523C11.1861 12.9791 11.5388 13.3319 11.5388 13.7656V17.5312C11.5388 17.7902 11.7487 18 12.0076 18H14.5611C15.5117 18 16.285 17.2267 16.285 16.2762V11.4731H16.5263C16.9196 11.4731 17.2894 11.3199 17.5679 11.0416C18.1416 10.4675 18.1419 9.53369 17.5686 8.95923Z" fill="white"/>
</g>
</g>
<defs>
<clipPath id="clip0_3_3331">
<rect width="20" height="20" fill="white"/>
</clipPath>
<clipPath id="clip1_3_3331">
<rect width="20" height="20" fill="white"/>
</clipPath>
</defs>
</svg>
