<svg width="20" height="20" viewBox="0 0 20 20" fill="none" xmlns="http://www.w3.org/2000/svg">
<g clip-path="url(#clip0_3_3338)">
<g clip-path="url(#clip1_3_3338)">
<path d="M9.87158 2C5.46058 2 1.87158 5.589 1.87158 10C1.87158 14.411 5.46058 18 9.87158 18C14.2826 18 17.8716 14.411 17.8716 10C17.8716 5.589 14.2826 2 9.87158 2ZM10.3796 4.599L12.4366 3.493C13.5756 3.944 14.5696 4.683 15.3256 5.623L14.8356 7.885L13.2666 8.654L10.3796 6.551V4.599ZM7.32358 3.487L9.38058 4.597V6.551L6.49558 8.654L4.91858 7.884L4.42858 5.608C5.18658 4.67 6.18258 3.935 7.32358 3.487ZM4.10158 13.954C3.44858 13.004 3.02358 11.887 2.90658 10.68L4.59958 8.841L6.14358 9.596L7.30658 12.899L6.32358 14.077L4.10158 13.954ZM11.6546 16.761C11.0836 16.912 10.4886 17 9.87158 17C9.12558 17 8.40758 16.88 7.73258 16.663L7.10358 14.705L8.10658 13.5H11.6406L12.6256 14.666L11.6546 16.761ZM13.4056 14.043L12.4386 12.898L13.6176 9.596L15.1546 8.843L16.8376 10.681C16.7366 11.722 16.4016 12.693 15.8926 13.552L13.4056 14.043Z" fill="white"/>
</g>
</g>
<defs>
<clipPath id="clip0_3_3338">
<rect width="20" height="20" fill="white"/>
</clipPath>
<clipPath id="clip1_3_3338">
<rect width="20" height="20" fill="white"/>
</clipPath>
</defs>
</svg>
