<svg width="20" height="20" viewBox="0 0 20 20" fill="none" xmlns="http://www.w3.org/2000/svg">
<g clip-path="url(#clip0_3_6910)">
<path d="M10.4378 3.36652V6.97348C11.9693 6.87315 13.4311 6.25209 14.5978 5.19902C13.4262 4.07547 11.9461 3.46602 10.4378 3.36652Z" fill="white"/>
<path d="M3.36652 9.56127H9.56138V7.85066C7.81096 7.75032 6.1385 7.04634 4.81014 5.84485C3.93452 6.93524 3.45358 8.23788 3.36652 9.56127ZM10.4378 10.4377V12.1484C12.189 12.2495 13.8624 12.9526 15.1899 14.1549C16.0656 13.0638 16.5464 11.7619 16.6327 10.4377H10.4395H10.4378ZM4.8093 14.1541C6.1385 12.9518 7.81096 12.2495 9.56138 12.1484V10.4377H3.36652C3.45358 11.7619 3.93452 13.0638 4.8093 14.1541Z" fill="white"/>
<path d="M9.56149 16.6333V13.0264C8.02998 13.1259 6.56812 13.7478 5.40228 14.8008C6.5731 15.9236 8.05402 16.5338 9.56066 16.6333H9.56149Z" fill="white"/>
<path d="M9.56149 6.97348V3.36652C8.05402 3.46602 6.5731 4.0763 5.40228 5.19902C6.5673 6.25209 8.03081 6.87232 9.56066 6.97348H9.56149ZM15.19 5.84579C13.8616 7.04728 12.1884 7.75043 10.4387 7.85076V9.56137H16.6328C16.5466 8.23799 16.0648 6.93534 15.19 5.84495V5.84579ZM10.4379 16.6335C11.9462 16.534 13.4272 15.9237 14.5979 14.801C13.4322 13.748 11.9695 13.1261 10.4379 13.0266V16.6335Z" fill="white"/>
</g>
<defs>
<clipPath id="clip0_3_6910">
<rect width="20" height="20" fill="white"/>
</clipPath>
</defs>
</svg>
