<svg width="20" height="20" viewBox="0 0 20 20" fill="none" xmlns="http://www.w3.org/2000/svg">
<g opacity="0.5" clip-path="url(#clip0_3_6892)">
<g clip-path="url(#clip1_3_6892)">
<path d="M10 13.7313C10 14.4701 10.1758 15.1683 10.4885 15.786C9.76621 15.84 9.03322 15.7753 8.31928 15.587L8.07384 15.5174L7.97103 15.4851L7.8682 15.4494V14.6402L7.908 14.6178L7.94615 14.592L9.93371 13.1012C9.96766 13.0763 9.99841 13.0456 10.0249 13.0133L10.0631 12.9611C10.0216 13.2114 10 13.4685 10 13.7313ZM5.14432 12.6957L5.16257 12.7173L5.18163 12.738L7.27202 14.5663L7.33006 14.6094L7.39391 14.6443V15.2646C6.32094 14.8068 5.39059 14.0738 4.69324 13.1427L4.5357 12.9246L5.14432 12.6957ZM5.7828 10.0332H5.78943L8.32675 10.2869C8.34084 10.2885 8.35327 10.2944 8.36322 10.3035L8.37566 10.3184L9.66671 12.6427C9.67666 12.6609 9.67666 12.6816 9.66837 12.699L9.64929 12.7223L7.66173 14.2131C7.64598 14.2248 7.62691 14.228 7.60867 14.2231L7.58379 14.2098L5.49424 12.3815C5.48429 12.3723 5.47765 12.3607 5.47434 12.3482L5.47351 12.3275L5.72227 10.0887C5.72558 10.0572 5.75212 10.0332 5.78362 10.0332H5.7828ZM4.38976 7.06799L5.31514 9.83913C5.29192 9.87977 5.27533 9.92288 5.26456 9.96766L5.25212 10.0357L5.00668 12.2413L4.277 12.5158L4.25626 12.4826C4.19988 12.3905 4.14847 12.2977 4.09954 12.1982C3.61613 11.2621 3.36571 10.2248 3.36655 9.17081C3.36655 8.60116 3.44118 8.03482 3.58794 7.4859L3.66671 7.21227L4.38976 7.06799ZM10.2952 7.0456L13.0025 7.29187L13.0274 7.29353H13.0606L14.0158 9.20315C12.1725 9.42206 10.6651 10.743 10.1716 12.4875H10.1136L10.0987 12.4494L10.0805 12.4121L8.81182 10.1277L10.2952 7.0456ZM8.96024 4.66915L8.96854 4.69818L8.97683 4.72637L9.71232 6.68905C9.73222 6.7388 9.75958 6.78441 9.79275 6.82587L9.84747 6.88391L8.42956 9.82753L8.4022 9.82089L8.37484 9.81592L5.83752 9.56219L5.77948 9.5597L5.72143 9.56385L4.82591 6.87728L4.84581 6.85821L4.87318 6.82504L4.8964 6.78938L6.2231 4.66915H8.96108H8.96024ZM14.549 4.34992C14.5721 4.37231 14.597 4.39221 14.6203 4.4146C14.7164 4.5058 14.806 4.59784 14.8972 4.70066C16.0166 5.9204 16.636 7.51575 16.6335 9.17081C16.6335 9.33333 16.6253 9.49585 16.6128 9.65838C15.995 9.34659 15.2985 9.17081 14.5606 9.17081H14.5291L13.481 7.07462C13.5108 7.03482 13.5348 6.99171 13.5522 6.94527L13.5738 6.87479L14.0639 4.67081L14.0746 4.59038L14.0738 4.50912L14.549 4.34992ZM11.4934 3.46849L11.5216 3.47512L13.5689 4.49917C13.5855 4.50746 13.597 4.52321 13.602 4.54062V4.56799L13.1119 6.77197C13.1079 6.7927 13.0937 6.80846 13.0755 6.81592L13.0457 6.82007L10.2082 6.56219C10.1924 6.56053 10.1783 6.5539 10.1684 6.54229L10.1559 6.52239L9.42044 4.5597C9.41215 4.54062 9.4163 4.51824 9.42708 4.50249L9.45029 4.48341L11.4652 3.47512L11.4934 3.46849ZM5.76123 4.0738L5.8483 4.33416L5.85079 4.35903L5.8425 4.38391L5.83919 4.38888L4.49424 6.53897L4.48014 6.55472L4.46688 6.56716L4.44946 6.57296L3.8483 6.6932L3.86489 6.64676C3.88396 6.60116 3.90469 6.55555 3.92459 6.51077C3.96688 6.41376 4.01083 6.31758 4.05809 6.22222C4.08297 6.17247 4.10784 6.12271 4.13437 6.07296C4.18247 5.98259 4.23222 5.89386 4.28362 5.80514L4.36655 5.66833C4.42874 5.56716 4.49424 5.46932 4.56223 5.37231C4.58297 5.34328 4.60121 5.31343 4.62193 5.28441C4.71232 5.16003 4.80601 5.0398 4.90469 4.92206C4.92956 4.89221 4.9561 4.86401 4.9818 4.83499C5.05726 4.74709 5.13521 4.66086 5.21563 4.57794C5.25295 4.53814 5.29192 4.50082 5.33089 4.46186C5.40386 4.38972 5.47849 4.31923 5.55477 4.25042C5.59623 4.21227 5.63934 4.17413 5.68247 4.13764C5.70734 4.11525 5.73471 4.09619 5.76041 4.0738H5.76123ZM10 2.53731C10.2985 2.53731 10.5954 2.55804 10.8905 2.5995L11.185 2.64676V3.08624L9.23885 4.05887C9.19491 4.08126 9.15427 4.10862 9.11862 4.14179L9.06804 4.19569H6.29772L6.29441 4.18159L6.29109 4.16749L6.15842 3.76783C7.27782 2.96435 8.62193 2.534 10 2.53731ZM11.6584 2.75042C12.4627 2.95688 13.2181 3.31343 13.8873 3.80099L14.1343 3.98922L13.8151 4.09701L13.7803 4.07545L11.733 3.05141L11.6965 3.03649L11.6584 3.02487V2.75124V2.75042Z" fill="white"/>
<path fill-rule="evenodd" clip-rule="evenodd" d="M14.5606 10C16.6211 10 18.2919 11.6708 18.2919 13.7313C18.2919 15.7918 16.6211 17.4627 14.5606 17.4627C12.5 17.4627 10.8293 15.7918 10.8293 13.7313C10.8293 11.6708 12.5 10 14.5606 10ZM14.5937 11.6584C13.3566 11.6584 12.4876 12.6102 12.4876 13.7902C12.4876 15.0962 13.4229 15.9303 14.6617 15.9303C15.2935 15.9303 15.9345 15.7371 16.3383 15.3665L15.8666 14.6749C15.6054 14.9279 15.1253 15.0796 14.7803 15.0796C14.0888 15.0796 13.6758 14.6501 13.6087 14.136H16.6335V13.8997C16.6335 12.5689 15.8077 11.6584 14.5937 11.6584ZM14.5937 12.5092C15.3019 12.5092 15.5721 13.0232 15.597 13.4112H13.5912C13.6418 13.0067 13.9288 12.5092 14.5945 12.5092H14.5937Z" fill="white"/>
</g>
</g>
<defs>
<clipPath id="clip0_3_6892">
<rect width="20" height="20" fill="white"/>
</clipPath>
<clipPath id="clip1_3_6892">
<rect width="20" height="20" fill="white"/>
</clipPath>
</defs>
</svg>
