<svg width="20" height="20" viewBox="0 0 20 20" fill="none" xmlns="http://www.w3.org/2000/svg">
<g clip-path="url(#clip0_3_6882)">
<g clip-path="url(#clip1_3_6882)">
<path d="M9.71242 7.51819L8.97692 5.55551C8.97029 5.53727 8.96531 5.51819 8.96034 5.49829H6.22402L4.89732 7.61852C4.88322 7.6434 4.86664 7.66662 4.84674 7.68735L4.82684 7.70642L5.72237 10.3929C5.7605 10.388 5.79948 10.3872 5.83845 10.3913L8.37576 10.6451C8.39401 10.6476 8.41307 10.6516 8.43132 10.6575L9.8484 7.71305C9.78869 7.65916 9.74309 7.59199 9.71324 7.51819H9.71242Z" fill="white"/>
<path d="M6.29755 5.02491H9.06704C9.1143 4.96853 9.17234 4.92126 9.23868 4.8881L11.1848 3.91546V3.47599C10.7934 3.40385 10.397 3.36654 9.9999 3.36654C8.62176 3.36322 7.27765 3.79357 6.15825 4.59705L6.29092 4.99671C6.29423 5.00584 6.29423 5.01579 6.29755 5.02491Z" fill="white"/>
<path d="M4.48096 7.38396C4.48511 7.37816 4.48925 7.37318 4.49506 7.36821L5.83834 5.21813L5.84248 5.21232C5.85161 5.19823 5.8541 5.17915 5.84829 5.1634L5.76123 4.90303C5.73635 4.9246 5.70899 4.9445 5.68328 4.96688C5.64017 5.00336 5.59788 5.04151 5.55559 5.07965C5.4793 5.14848 5.40467 5.21895 5.33171 5.29109C5.29273 5.33007 5.25377 5.36738 5.21562 5.40718C5.13602 5.4901 5.05808 5.57634 4.98262 5.66423C4.95775 5.69325 4.93038 5.72144 4.90551 5.75129C4.80683 5.86903 4.71313 5.9901 4.62358 6.11365C4.60203 6.14267 4.58378 6.17169 4.56305 6.20154C4.49506 6.29856 4.42955 6.39723 4.36653 6.49756L4.28527 6.63438C4.23303 6.7231 4.18328 6.81182 4.13602 6.90303L4.0589 7.05229C4.01164 7.14682 3.9677 7.243 3.92624 7.34002C3.90551 7.38562 3.88477 7.4304 3.86653 7.476L3.84912 7.52244L4.45029 7.40221C4.46272 7.40055 4.4735 7.39391 4.48096 7.38396ZM10.1136 13.3168H13.1651L14.4751 10.9519L13.0606 8.12277H13.0514C13.0348 8.12277 13.0183 8.12277 13.0025 8.12111L10.2952 7.87485L8.81098 10.9569L10.0805 13.2414C10.0937 13.2663 10.1054 13.2911 10.1136 13.3168ZM13.7811 4.9047C13.7927 4.9105 13.8035 4.91878 13.8151 4.92542L14.1343 4.81846C13.4064 4.23388 12.5622 3.81182 11.6584 3.57965V3.85328C11.6833 3.86157 11.7082 3.86987 11.733 3.88065L13.7811 4.9047ZM9.4196 5.38977L10.1559 7.35162C10.1642 7.37401 10.185 7.38977 10.2082 7.39142L13.0457 7.6493C13.0771 7.65262 13.1054 7.63189 13.1119 7.60121L13.6012 5.39723C13.6079 5.36903 13.5945 5.34084 13.5681 5.32841L11.5224 4.30353C11.5042 4.29524 11.4843 4.29524 11.4669 4.30353L9.45194 5.31182C9.42292 5.32592 9.41048 5.35908 9.42126 5.38811L9.4196 5.38977Z" fill="white"/>
<path d="M14.9462 11.136C14.9255 11.1376 14.9073 11.1501 14.8973 11.1692L14.8865 11.1874L13.5515 13.5945C13.5432 13.6095 13.5432 13.6269 13.5474 13.6426L13.5548 13.6659L14.015 15.2753L14.0565 15.2446L14.1651 15.1575C14.2148 15.1177 14.263 15.0779 14.311 15.0373L14.4147 14.9461C14.462 14.9038 14.5084 14.8615 14.554 14.8184L14.6535 14.7231C14.6983 14.6783 14.7422 14.6335 14.7862 14.5871L14.879 14.4884C14.9222 14.442 14.9645 14.3938 15.0059 14.3458L15.0929 14.2446C15.1344 14.1948 15.175 14.1443 15.2148 14.0928L15.2944 13.9909C15.3351 13.9378 15.3732 13.8831 15.4122 13.8284L15.4835 13.7281C15.5233 13.6684 15.5623 13.6078 15.5996 13.5481C15.6195 13.5174 15.6402 13.4876 15.6585 13.4569C15.7049 13.3814 15.7489 13.3043 15.7919 13.2272L15.821 13.1774C15.8724 13.0829 15.9213 12.9868 15.9686 12.8906C15.9819 12.8624 15.9934 12.8341 16.0076 12.806C16.0399 12.7371 16.0722 12.6675 16.1021 12.597C16.1187 12.5589 16.1336 12.5191 16.1494 12.4809C16.1742 12.4196 16.1983 12.359 16.2207 12.2985C16.2372 12.2545 16.2513 12.2107 16.2663 12.1675C16.2871 12.1095 16.307 12.0515 16.3252 11.9918C16.3401 11.947 16.3525 11.9005 16.3667 11.8549C16.3832 11.7968 16.3998 11.7388 16.4147 11.6808L16.4496 11.539L16.4894 11.3649L16.5175 11.2197L16.5324 11.1335H14.9695L14.9462 11.136Z" fill="white"/>
<path d="M5.25128 10.8651C5.25958 10.7963 5.28031 10.7292 5.31347 10.6686L4.38976 7.89746L3.66671 8.04174C3.4677 8.67607 3.36655 9.33693 3.36655 10.0003C3.36571 11.0533 3.61613 12.0915 4.09872 13.0277C4.14847 13.1272 4.19905 13.22 4.25543 13.3128L4.27616 13.3461L5.00585 13.0708L5.25128 10.8651ZM14.8972 5.53096C14.806 5.42731 14.7164 5.33445 14.6203 5.24406C14.597 5.22167 14.5721 5.20177 14.549 5.17938L14.0738 5.33859C14.0788 5.39249 14.0755 5.44639 14.0639 5.50028L13.5746 7.70426C13.5581 7.7764 13.5258 7.84522 13.481 7.90326L14.8649 10.6711C14.8731 10.6703 14.8815 10.6661 14.8914 10.6653C14.9129 10.6611 14.9345 10.6595 14.9561 10.6595H16.5721C16.5805 10.6595 16.588 10.662 16.5962 10.662C16.6203 10.4422 16.6327 10.2217 16.6335 10.0003C16.636 8.34522 16.0166 6.74987 14.8972 5.53096ZM13.097 13.7905H10.0622C10.0291 13.8452 9.98508 13.8924 9.93371 13.9315L7.94615 15.4215C7.92127 15.4397 7.89556 15.4555 7.8682 15.4696V16.2789C7.93703 16.3029 8.00502 16.3278 8.07384 16.3469C9.94449 16.9173 11.9718 16.6288 13.6095 15.5591C13.6004 15.5392 13.5929 15.5185 13.5863 15.4986L13.097 13.7905ZM9.66671 13.472L8.37484 11.1479C8.36489 11.1305 8.34665 11.1188 8.32591 11.1163L5.7886 10.8626H5.7828C5.75128 10.8626 5.72476 10.8867 5.72143 10.9173L5.47268 13.157C5.47019 13.1769 5.47765 13.1968 5.49341 13.2109L7.58297 15.0392C7.60535 15.0583 7.63769 15.06 7.66091 15.0426L9.64847 13.5517C9.67334 13.5334 9.68081 13.4994 9.66506 13.472H9.66671Z" fill="white"/>
<path d="M5.18244 13.5673C5.16834 13.554 5.1559 13.5399 5.14429 13.525L4.5365 13.7538C5.24794 14.7886 6.23882 15.6005 7.39388 16.0938V15.4736C7.34993 15.4528 7.30931 15.4272 7.27199 15.3956L5.18244 13.5673Z" fill="white"/>
</g>
</g>
<defs>
<clipPath id="clip0_3_6882">
<rect width="20" height="20" fill="white"/>
</clipPath>
<clipPath id="clip1_3_6882">
<rect width="20" height="20" fill="white"/>
</clipPath>
</defs>
</svg>
