<svg width="20" height="20" viewBox="0 0 20 20" fill="none" xmlns="http://www.w3.org/2000/svg">
<g clip-path="url(#clip0_3_6899)">
<path d="M5.06535 2.53729C4.93254 2.53729 4.81059 2.61026 4.75127 2.72469C4.69113 2.83995 4.7045 2.97759 4.78469 3.08041L5.77037 4.34575V15.655L4.43218 16.9204C4.35199 17.0232 4.33863 17.1609 4.39877 17.2761C4.45808 17.3905 4.58003 17.4635 4.71368 17.4635H14.9338C15.0408 17.4635 15.1419 17.4171 15.2096 17.3366L16.9713 15.6401C17.0547 15.5381 17.0715 15.3997 17.0129 15.2819C16.9545 15.1642 16.8309 15.0895 16.6955 15.0887H9.2946V2.87726C9.29543 2.68903 9.13839 2.53729 8.94376 2.53729H5.06535ZM9.99961 3.89384V4.57294C13.4979 4.57294 16.3431 7.31175 16.3431 10.6783C16.3431 12.0838 15.8419 13.3764 15.0099 14.4096H15.8803C16.6429 13.3035 17.0489 12.005 17.0481 10.6783C17.0481 6.93779 13.8864 3.89384 9.99961 3.89384ZM9.99961 5.25122V14.4096H14.0843C15.045 13.4361 15.638 12.1244 15.638 10.6783C15.638 7.68572 13.1087 5.25122 9.99961 5.25122ZM5.06619 5.8416C3.84829 6.99252 3.05974 8.56383 2.96201 10.3092C2.94447 10.6301 2.94948 10.9527 2.97872 11.2728C3.12907 12.9278 3.90092 14.4137 5.06619 15.5157V14.5074C4.15318 13.4246 3.65617 12.0729 3.65617 10.6783C3.65617 9.28439 4.15318 7.93199 5.06619 6.8499V5.8416ZM5.06619 8.05637C4.60342 8.85819 4.36035 9.76117 4.36117 10.6783C4.36117 11.6285 4.61846 12.5224 5.06619 13.3002V8.05637Z" fill="white"/>
</g>
<defs>
<clipPath id="clip0_3_6899">
<rect width="20" height="20" fill="white"/>
</clipPath>
</defs>
</svg>
