<svg width="20" height="20" viewBox="0 0 20 20" fill="none" xmlns="http://www.w3.org/2000/svg">
<g opacity="0.5" clip-path="url(#clip0_3_6903)">
<g clip-path="url(#clip1_3_6903)">
<path d="M9.37697 3.3913C7.89363 3.53 6.44518 4.16952 5.30568 5.30735C4.16784 6.44519 3.52833 7.89281 3.3913 9.37947C5.02081 9.56883 6.75331 10.401 8.17519 11.8238C9.59873 13.2473 10.4326 14.9806 10.6203 16.6093C12.1086 16.4714 13.5537 15.8327 14.6932 14.6957C15.8311 13.5579 16.4689 12.1087 16.6068 10.6228C14.9806 10.4342 13.2456 9.60123 11.8229 8.17851C10.4011 6.7558 9.56717 5.02164 9.37697 3.39213V3.3913Z" fill="white"/>
<path d="M16.6335 9.79986C16.5854 8.16785 15.9392 6.55162 14.6959 5.30665C13.4509 4.06002 11.8322 3.41635 10.2002 3.36652C10.3838 4.79172 11.1404 6.32322 12.4094 7.59229C13.6776 8.86052 15.2074 9.61631 16.6335 9.79986ZM3.36652 10.2018C3.4147 11.833 4.06084 13.45 5.30582 14.695C6.54997 15.9392 8.16702 16.5862 9.79903 16.6335C9.61548 15.21 8.85886 13.6801 7.5898 12.411C6.32323 11.1428 4.79089 10.3871 3.36652 10.2018Z" fill="white"/>
</g>
</g>
<defs>
<clipPath id="clip0_3_6903">
<rect width="20" height="20" fill="white"/>
</clipPath>
<clipPath id="clip1_3_6903">
<rect width="20" height="20" fill="white"/>
</clipPath>
</defs>
</svg>
