<svg width="40" height="40" viewBox="0 0 40 40" fill="none" xmlns="http://www.w3.org/2000/svg">
<rect width="40" height="40" rx="20" fill="white"/>
<g clip-path="url(#clip0_10_5251)">
<g clip-path="url(#clip1_10_5251)">
<g clip-path="url(#clip2_10_5251)">
<path d="M29.2522 13.6176V27.2861L25.7407 30.7963H15.9201L9.6709 25.6484V13.6176H29.2522Z" fill="#6ECAAB"/>
<path d="M30.9204 18.0433C29.1191 18.5714 28.8463 16.6716 26.9692 16.6716C25.0924 16.6716 25.0924 18.0713 23.2154 18.0713C21.3385 18.0713 21.3385 16.6716 19.4615 16.6716C17.5846 16.6716 17.5846 18.0713 15.7076 18.0713C13.8307 18.0713 13.83 16.6716 11.9538 16.6716C10.0775 16.6716 9.80386 18.5714 8.00264 18.0433C7.47455 17.8881 8.89975 16.8211 8.89975 16.2701C8.89975 15.7191 7.5 15.7172 7.5 15.1694C7.5 14.6216 8.89975 14.619 8.89975 14.0687C8.89975 13.5183 7.5 13.5177 7.5 12.9673C7.5 12.417 8.89975 12.4163 8.89975 11.866C8.89975 11.3156 7.47455 10.2454 8.00264 10.0927C9.80386 9.56464 10.0768 11.4645 11.9538 11.4645C13.8307 11.4645 13.8307 10.0647 15.7076 10.0647C17.5846 10.0647 17.5846 11.4645 19.4615 11.4645C21.3385 11.4645 21.3385 10.0647 23.2154 10.0647C25.0924 10.0647 25.093 11.4645 26.9692 11.4645C28.8455 11.4645 29.1191 9.56464 30.9204 10.0927C31.4485 10.2454 30.0233 11.315 30.0233 11.8653C30.0233 12.4157 31.423 12.4157 31.423 12.966C31.423 13.5164 30.0233 13.517 30.0233 14.0674C30.0233 14.6177 31.423 14.6177 31.423 15.1687C31.423 15.7197 29.9049 15.9182 30.0467 16.4501C30.2936 17.3753 31.4485 17.8881 30.9204 18.0433Z" fill="#161C46"/>
<path d="M21.7519 20.7435C21.6494 20.8108 21.5408 20.8681 21.4274 20.9146C21.3201 20.9608 21.2099 21.0004 21.0979 21.0336C20.8807 21.0974 20.6578 21.1399 20.4323 21.1609C19.9861 21.2045 19.5356 21.1709 19.1007 21.0616C18.8773 21.0065 18.6599 20.9294 18.4517 20.8314C18.2339 20.7301 18.0298 20.6019 17.8441 20.4496C17.6471 20.2926 17.4795 20.102 17.3491 19.8865C17.3192 19.828 17.2855 19.7745 17.2619 19.7147C17.2376 19.6552 17.2164 19.5945 17.1983 19.5328C17.1835 19.4698 17.1722 19.4061 17.1646 19.3419C17.1614 19.2782 17.1633 19.2144 17.1703 19.151C17.2308 19.179 17.2829 19.207 17.3332 19.2318L17.4865 19.2954L17.6341 19.3457C17.6819 19.361 17.7309 19.375 17.7773 19.3877C17.9682 19.4386 18.1476 19.4761 18.3289 19.5149L18.8755 19.6307C19.0581 19.6715 19.2426 19.7147 19.429 19.7618C19.8151 19.8581 20.1949 19.9777 20.5666 20.12C20.7656 20.1968 20.9606 20.2836 21.1507 20.3803C21.2493 20.4311 21.3486 20.4833 21.4478 20.5425C21.5527 20.604 21.6543 20.6711 21.7519 20.7435Z" fill="white"/>
<path d="M23.7881 20.7436C23.8856 20.672 23.987 20.6057 24.0916 20.5451C24.1908 20.4859 24.2901 20.4337 24.3887 20.3829C24.5788 20.2862 24.7738 20.1994 24.9728 20.1226C25.3443 19.9803 25.7243 19.8607 26.1103 19.7644C26.2968 19.7173 26.4813 19.674 26.664 19.6333L27.2105 19.5175C27.3918 19.4781 27.5737 19.4405 27.7621 19.3903C27.8086 19.3775 27.8576 19.3636 27.9052 19.3483L28.0528 19.298L28.2062 19.2344C28.2565 19.2096 28.3086 19.1816 28.3691 19.1536C28.3761 19.217 28.378 19.2808 28.3748 19.3445C28.3672 19.4087 28.356 19.4724 28.3411 19.5353C28.323 19.597 28.3018 19.6578 28.2775 19.7173C28.2526 19.7771 28.2202 19.8306 28.1903 19.8891C28.0598 20.1045 27.8922 20.2952 27.6953 20.4521C27.5096 20.6045 27.3055 20.7327 27.0877 20.8339C26.8795 20.932 26.6621 21.0091 26.4387 21.0642C26.004 21.1747 25.5536 21.2096 25.1071 21.1674C24.8816 21.1464 24.6587 21.1037 24.4415 21.0401C24.3295 21.0069 24.2193 20.9671 24.112 20.9211C23.9986 20.8725 23.8901 20.813 23.7881 20.7436Z" fill="white"/>
<path d="M22.6811 27.4025C22.4937 27.4023 22.3066 27.3861 22.1218 27.3543C20.3079 27.0431 19.4432 26.2363 19.0596 25.7056C18.9795 25.596 18.9564 25.4548 18.9975 25.3253C19.0386 25.1959 19.1389 25.0938 19.2676 25.0504C19.4408 24.992 19.632 25.0509 19.7423 25.1966C20.0139 25.5588 20.7056 26.2076 22.2719 26.4761C24.0752 26.786 24.8991 24.9721 24.9073 24.9536C24.9586 24.8376 25.0568 24.749 25.1774 24.7099C25.2981 24.6708 25.4296 24.6849 25.5392 24.7488C25.7386 24.872 25.8129 25.1259 25.7116 25.3373C25.3597 26.1116 24.3219 27.4025 22.6811 27.4025Z" fill="#161C46"/>
</g>
</g>
</g>
<defs>
<clipPath id="clip0_10_5251">
<rect width="25" height="25" fill="white" transform="translate(7.5 7.5)"/>
</clipPath>
<clipPath id="clip1_10_5251">
<rect width="25" height="25" fill="white" transform="translate(7.5 7.5)"/>
</clipPath>
<clipPath id="clip2_10_5251">
<rect width="25" height="25" fill="white" transform="translate(7.5 7.5)"/>
</clipPath>
</defs>
</svg>
