<svg width="20" height="20" viewBox="0 0 20 20" fill="none" xmlns="http://www.w3.org/2000/svg">
<g clip-path="url(#clip0_3_3347)">
<g clip-path="url(#clip1_3_3347)">
<path d="M17.8708 7.43347L15.5946 14.3693C15.451 14.8517 15.199 15.2948 14.8577 15.6647C14.5165 16.0346 14.0951 16.3215 13.6259 16.5035C13.8751 15.9228 14.0033 15.2974 14.0027 14.6654V7.99634C14.0013 6.75865 13.509 5.57205 12.6338 4.69687C11.7586 3.82168 10.572 3.32938 9.33431 3.32797H8.2239C8.63572 2.78319 9.2044 2.37751 9.85355 2.16542C10.5027 1.95332 11.2012 1.94499 11.8552 2.14154L15.6473 3.30596C16.4844 3.56602 17.1861 4.14396 17.6019 4.91568C18.0176 5.6874 18.1141 6.59136 17.8708 7.43347ZM12.6689 7.99634V14.6654C12.6678 15.5495 12.3161 16.397 11.691 17.0222C11.0659 17.6473 10.2184 17.9989 9.33431 18H5.33284C4.44879 17.9989 3.60125 17.6473 2.97613 17.0222C2.35101 16.397 1.99935 15.5495 1.99829 14.6654V7.99634C1.99935 7.11229 2.35101 6.26475 2.97613 5.63963C3.60125 5.01451 4.44879 4.66285 5.33284 4.66179H9.33431C10.2184 4.66285 11.0659 5.01451 11.691 5.63963C12.3161 6.26475 12.6678 7.11229 12.6689 7.99634ZM10.0012 10.664C10.0012 10.3102 9.86069 9.97097 9.61055 9.72083C9.36041 9.47069 9.02115 9.33016 8.6674 9.33016C8.31364 9.33016 7.97438 9.47069 7.72424 9.72083C7.4741 9.97097 7.33357 10.3102 7.33357 10.664C7.33357 10.3102 7.19305 9.97097 6.94291 9.72083C6.69277 9.47069 6.3535 9.33016 5.99975 9.33016C5.646 9.33016 5.30674 9.47069 5.0566 9.72083C4.80646 9.97097 4.66593 10.3102 4.66593 10.664C4.66593 11.631 5.69564 12.9255 6.47593 13.5837C6.71567 13.7866 7.01954 13.8979 7.33357 13.8979C7.64761 13.8979 7.95148 13.7866 8.19122 13.5837C8.97151 12.9255 10.0012 11.631 10.0012 10.664Z" fill="white"/>
</g>
</g>
<defs>
<clipPath id="clip0_3_3347">
<rect width="20" height="20" fill="white"/>
</clipPath>
<clipPath id="clip1_3_3347">
<rect width="20" height="20" fill="white"/>
</clipPath>
</defs>
</svg>
