<svg width="17" height="16" viewBox="0 0 17 16" fill="none" xmlns="http://www.w3.org/2000/svg">
<g clip-path="url(#clip0_3_3616)">
<g clip-path="url(#clip1_3_3616)">
<g clip-path="url(#clip2_3_3616)">
<path fill-rule="evenodd" clip-rule="evenodd" d="M10.0934 14.0317C10.0934 13.4845 9.64981 13.0409 9.10267 13.0409H7.8894C7.62668 13.0409 7.37462 13.1453 7.18887 13.3311C7.00304 13.5169 6.89862 13.7689 6.89862 14.0317C6.89862 14.5788 7.34226 15.0225 7.8894 15.0225H9.10267C9.64981 15.0225 10.0934 14.5788 10.0934 14.0317ZM2.66309 11.4769C2.82857 11.4895 3.02879 11.4968 3.22991 11.485C3.33704 12.0284 3.60322 12.5323 4.00052 12.9296C4.52798 13.457 5.24334 13.7534 5.98925 13.7534H6.3673C6.35063 13.8446 6.34206 13.9377 6.34206 14.0317C6.34206 14.1267 6.35063 14.2197 6.36705 14.31H5.98925C5.09572 14.31 4.23877 13.955 3.60696 13.3232C3.10291 12.8191 2.77505 12.1718 2.66309 11.4769ZM2.37997 10.8846C1.94055 10.8105 1.53165 10.6016 1.21244 10.2824C0.807628 9.87762 0.5802 9.32852 0.5802 8.75601V7.44054C0.5802 6.86803 0.807628 6.31896 1.21244 5.91414C1.61727 5.50932 2.16633 5.28186 2.73884 5.28186H2.88254C3.11222 2.38281 5.53774 0.101654 8.49604 0.101654C11.4544 0.101654 13.8799 2.38281 14.1096 5.28186H14.2532C14.8257 5.28186 15.3748 5.50932 15.7796 5.91414C16.1845 6.31896 16.4119 6.86803 16.4119 7.44054V8.75601C16.4119 9.32852 16.1845 9.87762 15.7796 10.2824C15.3748 10.6873 14.8257 10.9147 14.2532 10.9147H13.6162C13.352 10.9147 13.1379 10.7005 13.1379 10.4363V5.73297C13.1379 3.16935 11.0596 1.09114 8.49604 1.09114C5.93242 1.09114 3.8542 3.16935 3.8542 5.73297V10.4363C3.8542 10.6229 3.74743 10.7845 3.59165 10.8634C3.16283 11.0122 2.49781 10.9045 2.37997 10.8846Z" fill="white"/>
</g>
</g>
</g>
<defs>
<clipPath id="clip0_3_3616">
<rect width="17" height="15.03" fill="white"/>
</clipPath>
<clipPath id="clip1_3_3616">
<rect width="17" height="15.03" fill="white"/>
</clipPath>
<clipPath id="clip2_3_3616">
<rect width="17" height="15.0385" fill="white" transform="translate(0 -0.00422668)"/>
</clipPath>
</defs>
</svg>
