<svg width="17" height="14" viewBox="0 0 17 14" fill="none" xmlns="http://www.w3.org/2000/svg">
<path fill-rule="evenodd" clip-rule="evenodd" d="M6.66667 0H10C13.1427 0 14.714 2.38419e-07 15.6903 0.97631C16.6666 1.95262 16.6666 3.52397 16.6666 6.66666C16.6666 9.80936 16.6666 11.3807 15.6903 12.3571C14.714 13.3334 13.1427 13.3334 10 13.3334H6.66667C3.52397 13.3334 1.95262 13.3334 0.97631 12.3571C0 11.3807 0 9.80936 0 6.66666C0 3.52397 0 1.95262 0.97631 0.97631C1.95262 2.38419e-07 3.52397 0 6.66667 0ZM9.37503 4.16666C9.37503 3.82149 9.65483 3.54166 10 3.54166H14.1666C14.5118 3.54166 14.7916 3.82149 14.7916 4.16666C14.7916 4.51184 14.5118 4.79166 14.1666 4.79166H10C9.65483 4.79166 9.37503 4.51184 9.37503 4.16666ZM10.2083 6.66666C10.2083 6.32149 10.4881 6.04166 10.8333 6.04166H14.1666C14.5118 6.04166 14.7916 6.32149 14.7916 6.66666C14.7916 7.01186 14.5118 7.29166 14.1666 7.29166H10.8333C10.4881 7.29166 10.2083 7.01186 10.2083 6.66666ZM11.0416 9.16666C11.0416 8.82146 11.3215 8.54166 11.6666 8.54166H14.1666C14.5118 8.54166 14.7916 8.82146 14.7916 9.16666C14.7916 9.51186 14.5118 9.79166 14.1666 9.79166H11.6666C11.3215 9.79166 11.0416 9.51186 11.0416 9.16666ZM7.5 4.16666C7.5 5.08714 6.75381 5.83333 5.83333 5.83333C4.91286 5.83333 4.16667 5.08714 4.16667 4.16666C4.16667 3.24619 4.91286 2.5 5.83333 2.5C6.75381 2.5 7.5 3.24619 7.5 4.16666ZM5.83333 10.8334C9.16663 10.8334 9.16663 10.0872 9.16663 9.16666C9.16663 8.24616 7.67428 7.49996 5.83333 7.49996C3.99238 7.49996 2.5 8.24616 2.5 9.16666C2.5 10.0872 2.5 10.8334 5.83333 10.8334Z" fill="white" fill-opacity="0.5"/>
</svg>
