<svg width="20" height="20" viewBox="0 0 20 20" fill="none" xmlns="http://www.w3.org/2000/svg">
<g clip-path="url(#clip0_3_3354)">
<g clip-path="url(#clip1_3_3354)">
<path d="M3.00098 5C3.00098 3.89543 3.89641 3 5.00098 3H7.2232C8.32777 3 9.2232 3.89543 9.2232 5V7.22222C9.2232 8.32679 8.32777 9.22222 7.2232 9.22222H5.00097C3.89641 9.22222 3.00098 8.32679 3.00098 7.22222V5Z" fill="white"/>
<path d="M3.00098 12.7778C3.00098 11.6732 3.89641 10.7778 5.00098 10.7778H7.2232C8.32777 10.7778 9.2232 11.6732 9.2232 12.7778V15C9.2232 16.1046 8.32777 17 7.2232 17H5.00097C3.89641 17 3.00098 16.1046 3.00098 15V12.7778Z" fill="white"/>
<path d="M10.7788 12.7778C10.7788 11.6732 11.6742 10.7778 12.7788 10.7778H15.001C16.1056 10.7778 17.001 11.6732 17.001 12.7778V15C17.001 16.1046 16.1056 17 15.001 17H12.7788C11.6742 17 10.7788 16.1046 10.7788 15V12.7778Z" fill="white"/>
<path d="M17.001 6.11111C17.001 7.82933 15.6081 9.22222 13.8899 9.22222C12.1717 9.22222 10.7788 7.82933 10.7788 6.11111C10.7788 4.39289 12.1717 3 13.8899 3C15.6081 3 17.001 4.39289 17.001 6.11111Z" fill="white"/>
</g>
</g>
<defs>
<clipPath id="clip0_3_3354">
<rect width="20" height="20" fill="white"/>
</clipPath>
<clipPath id="clip1_3_3354">
<rect width="20" height="20" fill="white"/>
</clipPath>
</defs>
</svg>
