<svg width="21" height="20" viewBox="0 0 21 20" fill="none" xmlns="http://www.w3.org/2000/svg">
<g clip-path="url(#clip0_10_4529)">
<g clip-path="url(#clip1_10_4529)">
<path d="M15.9285 4.10572C14.9087 3.59393 13.8151 3.21687 12.6717 3.00091C12.6509 2.99674 12.6301 3.00715 12.6194 3.02799C12.4787 3.30158 12.323 3.65851 12.2139 3.93905C10.9841 3.73767 9.76057 3.73767 8.556 3.93905C8.44688 3.65227 8.28544 3.30158 8.14417 3.02799C8.13344 3.00785 8.11264 2.99743 8.09182 3.00091C6.94906 3.21618 5.85549 3.59324 4.83508 4.10572C4.82624 4.10988 4.81867 4.11683 4.81365 4.12585C2.73938 7.51528 2.17115 10.8214 2.44991 14.0865C2.45117 14.1025 2.45937 14.1178 2.47072 14.1275C3.83926 15.2267 5.16492 15.8941 6.46597 16.3364C6.48679 16.3433 6.50886 16.335 6.52211 16.3163C6.82987 15.8566 7.10421 15.3719 7.33944 14.8622C7.35332 14.8323 7.34007 14.7969 7.3117 14.7851C6.87654 14.6045 6.46219 14.3844 6.06361 14.1344C6.03208 14.1143 6.02956 14.065 6.05856 14.0414C6.14243 13.9726 6.22633 13.9011 6.30642 13.8289C6.32091 13.8157 6.3411 13.8129 6.35814 13.8212C8.97664 15.1288 11.8115 15.1288 14.3991 13.8212C14.4161 13.8122 14.4363 13.815 14.4515 13.8282C14.5316 13.9004 14.6154 13.9726 14.7 14.0414C14.729 14.065 14.7271 14.1143 14.6955 14.1344C14.297 14.3893 13.8826 14.6045 13.4468 14.7844C13.4184 14.7962 13.4058 14.8323 13.4197 14.8622C13.66 15.3712 13.9343 15.8559 14.2364 16.3156C14.249 16.335 14.2717 16.3433 14.2925 16.3364C15.5999 15.8941 16.9256 15.2267 18.2941 14.1275C18.3061 14.1178 18.3137 14.1032 18.3149 14.0872C18.6485 10.3124 17.7561 7.03336 15.9493 4.12654C15.9449 4.11683 15.9373 4.10988 15.9285 4.10572ZM7.73047 12.0984C6.94212 12.0984 6.29254 11.3068 6.29254 10.3346C6.29254 9.36241 6.92952 8.57079 7.73047 8.57079C8.5377 8.57079 9.18099 9.36936 9.16837 10.3346C9.16837 11.3068 8.53139 12.0984 7.73047 12.0984ZM13.047 12.0984C12.2586 12.0984 11.6091 11.3068 11.6091 10.3346C11.6091 9.36241 12.246 8.57079 13.047 8.57079C13.8542 8.57079 14.4975 9.36936 14.4849 10.3346C14.4849 11.3068 13.8542 12.0984 13.047 12.0984Z" fill="white"/>
</g>
</g>
<defs>
<clipPath id="clip0_10_4529">
<rect width="21" height="20" fill="white"/>
</clipPath>
<clipPath id="clip1_10_4529">
<rect width="21" height="20" fill="white"/>
</clipPath>
</defs>
</svg>
