<svg width="21" height="20" viewBox="0 0 21 20" fill="none" xmlns="http://www.w3.org/2000/svg">
<g clip-path="url(#clip0_10_4543)">
<g clip-path="url(#clip1_10_4543)">
<path fill-rule="evenodd" clip-rule="evenodd" d="M17.2788 6.70705V13.312C17.2693 13.3693 17.2598 13.4313 17.2502 13.4934C17.2407 13.5554 17.2311 13.6175 17.2216 13.6747C16.8589 15.3355 15.4272 16.5 13.7282 16.5H7.79135C7.56227 16.5 7.3332 16.4809 7.10412 16.4427C5.44333 16.1182 4.25977 14.6674 4.25977 12.9875V7.03157C4.25977 6.8025 4.27886 6.55433 4.33613 6.32526C4.66065 4.89354 5.53878 3.99633 6.9514 3.59545C7.03731 3.57636 7.12321 3.56204 7.20911 3.54772C7.29502 3.53341 7.38092 3.51909 7.46682 3.5H14.0718C14.2054 3.51909 14.32 3.53818 14.4345 3.57636C15.8662 3.91997 16.7825 4.779 17.1643 6.21072C17.2036 6.31552 17.2249 6.42932 17.2468 6.54594C17.2568 6.59925 17.2669 6.65315 17.2788 6.70705ZM14.32 10.0095C14.3009 8.02423 12.7355 6.45888 10.7693 6.45888C8.784 6.45888 7.21866 8.04332 7.21866 10.0095C7.21866 11.9949 8.80309 13.5602 10.7693 13.5602C12.7546 13.5602 14.3009 11.9758 14.32 10.0095ZM15.4462 6.22981C15.4462 5.65712 14.969 5.17988 14.3963 5.17988C13.8236 5.17988 13.3464 5.65712 13.3464 6.21072C13.3464 6.8025 13.7855 7.26065 14.3963 7.26065C15.0072 7.27974 15.4462 6.82159 15.4462 6.22981ZM12.9391 9.99477C12.9391 11.1985 11.9764 12.1794 10.7767 12.1794C9.57701 12.1794 8.59947 11.2134 8.59947 10.0096C8.59947 8.80585 9.57701 7.83986 10.7619 7.83986C11.9616 7.825 12.9391 8.80585 12.9391 9.99477ZM14.4154 6.51617C14.5682 6.51617 14.7018 6.38254 14.7018 6.22983C14.7018 6.07711 14.5491 5.94348 14.4154 5.92439C14.2627 5.94348 14.1291 6.07711 14.1291 6.22983C14.1291 6.38254 14.2627 6.51617 14.4154 6.51617Z" fill="white"/>
</g>
</g>
<defs>
<clipPath id="clip0_10_4543">
<rect width="21" height="20" fill="white"/>
</clipPath>
<clipPath id="clip1_10_4543">
<rect width="21" height="20" fill="white"/>
</clipPath>
</defs>
</svg>
