<svg width="21" height="20" viewBox="0 0 21 20" fill="none" xmlns="http://www.w3.org/2000/svg">
<g clip-path="url(#clip0_10_4533)">
<g clip-path="url(#clip1_10_4533)">
<path d="M7.05711 7.677H4.44159C4.32551 7.677 4.23145 7.7711 4.23145 7.88714V16.2897C4.23145 16.4057 4.32551 16.4998 4.44159 16.4998H7.05711C7.17319 16.4998 7.26725 16.4057 7.26725 16.2897V7.88714C7.26725 7.7711 7.17319 7.677 7.05711 7.677Z" fill="white"/>
<path d="M5.75033 3.5C4.79865 3.5 4.02441 4.2734 4.02441 5.22402C4.02441 6.17507 4.79865 6.94876 5.75033 6.94876C6.70125 6.94876 7.47486 6.17503 7.47486 5.22402C7.4749 4.2734 6.70125 3.5 5.75033 3.5Z" fill="white"/>
<path d="M13.7095 7.46826C12.659 7.46826 11.8825 7.91985 11.4115 8.43296V7.88723C11.4115 7.77119 11.3174 7.67709 11.2013 7.67709H8.69647C8.58039 7.67709 8.48633 7.77119 8.48633 7.88723V16.2898C8.48633 16.4059 8.58039 16.5 8.69647 16.5H11.3063C11.4224 16.5 11.5164 16.4059 11.5164 16.2898V12.1325C11.5164 10.7316 11.897 10.1858 12.8735 10.1858C13.9371 10.1858 14.0216 11.0607 14.0216 12.2046V16.2899C14.0216 16.4059 14.1157 16.5 14.2317 16.5H16.8425C16.9586 16.5 17.0526 16.4059 17.0526 16.2899V11.6809C17.0526 9.59777 16.6554 7.46826 13.7095 7.46826Z" fill="white"/>
</g>
</g>
<defs>
<clipPath id="clip0_10_4533">
<rect width="21" height="20" fill="white"/>
</clipPath>
<clipPath id="clip1_10_4533">
<rect width="21" height="20" fill="white"/>
</clipPath>
</defs>
</svg>
