<svg width="44" height="44" viewBox="0 0 44 44" fill="none" xmlns="http://www.w3.org/2000/svg">
<circle cx="22" cy="22" r="21.25" stroke="#C3C3C3" stroke-width="1.5"/>
<path d="M8.08784 16.2381C8.30833 17.1697 8.83701 17.9996 9.58817 18.5931C10.3393 19.1867 11.269 19.5091 12.2263 19.5082C13.1837 19.5073 14.1127 19.183 14.8627 18.588C15.6127 17.993 16.1397 17.1621 16.3584 16.23L15.7087 16.0776C15.5243 16.8632 15.0801 17.5636 14.4479 18.0651C13.8157 18.5667 13.0326 18.84 12.2257 18.8408C11.4187 18.8416 10.6351 18.5698 10.0019 18.0695C9.36878 17.5692 8.92315 16.8697 8.7373 16.0844L8.08784 16.2381Z" fill="#D9D9D9"/>
<path d="M27.6274 16.521C27.8673 17.4478 28.4132 18.2664 29.1766 18.8442C29.94 19.4219 30.8761 19.7249 31.8333 19.7039C32.7904 19.683 33.7124 19.3394 34.4498 18.7289C35.1872 18.1184 35.6968 17.2767 35.896 16.3403L35.2432 16.2014C35.0753 16.9907 34.6458 17.7002 34.0242 18.2148C33.4026 18.7295 32.6254 19.0191 31.8187 19.0367C31.0119 19.0543 30.2228 18.799 29.5793 18.312C28.9359 17.825 28.4757 17.135 28.2735 16.3537L27.6274 16.521Z" fill="#D9D9D9"/>
</svg>
