<svg width="21" height="20" viewBox="0 0 21 20" fill="none" xmlns="http://www.w3.org/2000/svg">
<g clip-path="url(#clip0_10_4539)">
<g clip-path="url(#clip1_10_4539)">
<path d="M18.3066 9.97391C18.3066 8.87572 17.4135 7.98262 16.3153 7.98262C15.8762 7.98262 15.4591 8.126 15.1186 8.38586C14.0074 7.61424 12.5518 7.15425 11.0036 7.03776L11.8389 5.07833L14.2693 5.64585C14.3469 6.39756 14.9762 6.98698 15.7478 6.98698C16.5712 6.98698 17.2413 6.31691 17.2413 5.49351C17.2413 4.67012 16.5712 4.00005 15.7478 4.00005C15.2261 4.00005 14.7671 4.26987 14.5003 4.67709L11.6597 4.01299C11.4187 3.95823 11.1828 4.0807 11.0872 4.30272L9.93227 7.01088C8.26059 7.06862 6.66756 7.53956 5.46482 8.35997C5.13725 8.11704 4.73103 7.98262 4.29793 7.98262C3.19973 7.98262 2.30664 8.87572 2.30664 9.97391C2.30664 10.7017 2.7039 11.3598 3.31323 11.6974C3.30527 11.785 3.30228 11.8746 3.30228 11.9652C3.30228 14.7102 6.4286 16.9434 10.2718 16.9434C14.114 16.9434 17.2413 14.7102 17.2413 11.9652C17.2413 11.8875 17.2383 11.8109 17.2333 11.7342C17.8825 11.4037 18.3066 10.7296 18.3066 9.97391ZM15.7478 4.99569C16.0216 4.99569 16.2456 5.21872 16.2456 5.49351C16.2456 5.76831 16.0216 5.99134 15.7478 5.99134C15.474 5.99134 15.25 5.76831 15.25 5.49351C15.25 5.21872 15.474 4.99569 15.7478 4.99569ZM6.78704 11.4674C6.78704 10.9188 7.23408 10.4717 7.78268 10.4717C8.33128 10.4717 8.77832 10.9188 8.77832 11.4674C8.77832 12.017 8.33128 12.463 7.78268 12.463C7.23408 12.463 6.78704 12.017 6.78704 11.4674ZM12.5707 14.7699C11.8837 15.2668 11.0772 15.5157 10.2718 15.5157C9.46631 15.5157 8.65984 15.2668 7.97285 14.7699C7.74982 14.6086 7.70004 14.297 7.86134 14.075C8.02263 13.8529 8.33427 13.8032 8.55629 13.9635C9.5828 14.7052 10.9607 14.7072 11.9873 13.9635C12.2093 13.8032 12.5199 13.8509 12.6822 14.075C12.8435 14.298 12.7927 14.6086 12.5707 14.7699ZM12.7609 12.463C12.2113 12.463 11.7652 12.017 11.7652 11.4674C11.7652 10.9188 12.2113 10.4717 12.7609 10.4717C13.3105 10.4717 13.7565 10.9188 13.7565 11.4674C13.7565 12.017 13.3105 12.463 12.7609 12.463Z" fill="white"/>
</g>
</g>
<defs>
<clipPath id="clip0_10_4539">
<rect width="21" height="20" fill="white"/>
</clipPath>
<clipPath id="clip1_10_4539">
<rect width="21" height="20" fill="white"/>
</clipPath>
</defs>
</svg>
