<svg width="21" height="20" viewBox="0 0 21 20" fill="none" xmlns="http://www.w3.org/2000/svg">
<g clip-path="url(#clip0_10_4513)">
<g clip-path="url(#clip1_10_4513)">
<path d="M11.8695 9.54336C11.8695 12.0526 9.84918 14.0867 7.35712 14.0867C4.86506 14.0867 2.84473 12.0526 2.84473 9.54336C2.84473 7.03412 4.86506 5 7.35712 5C9.84918 5 11.8695 7.03412 11.8695 9.54336Z" fill="white"/>
<path d="M16.8201 9.54335C16.8201 11.9055 15.81 13.8202 14.5638 13.8202C13.3177 13.8202 12.3076 11.9053 12.3076 9.54335C12.3076 7.18145 13.3179 5.2666 14.564 5.2666C15.81 5.2666 16.8201 7.1813 16.8201 9.54335Z" fill="white"/>
<path d="M18.8449 9.54352C18.8449 11.6598 18.4897 13.3754 18.0513 13.3754C17.613 13.3754 17.2578 11.6598 17.2578 9.54352C17.2578 7.42722 17.613 5.71167 18.0513 5.71167C18.4897 5.71167 18.8449 7.42722 18.8449 9.54352Z" fill="white"/>
</g>
</g>
<defs>
<clipPath id="clip0_10_4513">
<rect width="21" height="20" fill="white"/>
</clipPath>
<clipPath id="clip1_10_4513">
<rect width="21" height="20" fill="white"/>
</clipPath>
</defs>
</svg>
