<svg width="20" height="20" viewBox="0 0 20 20" fill="none" xmlns="http://www.w3.org/2000/svg">
<g clip-path="url(#clip0_10_4551)">
<g clip-path="url(#clip1_10_4551)">
<path fill-rule="evenodd" clip-rule="evenodd" d="M12.7144 7.6145C13.6405 8.30645 14.7747 8.71361 15.9996 8.71361V6.77353C15.3159 6.62132 14.7105 6.24769 14.2554 5.72804C13.4764 5.21981 12.9151 4.38132 12.7505 3.3999H11.0332V13.244C11.0293 14.3916 10.1385 15.3208 9.04 15.3208C8.39264 15.3208 7.81753 14.9983 7.45333 14.4985C6.80292 14.1553 6.35691 13.4507 6.35691 12.637C6.35691 11.4861 7.24919 10.5531 8.35009 10.5531C8.561 10.5531 8.76429 10.5875 8.95498 10.6507V8.68954C6.59083 8.74061 4.68945 10.7602 4.68945 13.2441C4.68945 14.484 5.16295 15.6081 5.93138 16.4293C6.62467 16.916 7.45925 17.1999 8.35711 17.1999C10.7635 17.1999 12.7144 15.1602 12.7144 12.6442V7.6145Z" fill="white"/>
<path fill-rule="evenodd" clip-rule="evenodd" d="M16 6.77359V6.24907C15.3834 6.25005 14.7789 6.06951 14.2558 5.7281C14.7189 6.25817 15.3287 6.62363 16 6.77359ZM12.7509 3.39996C12.7352 3.30618 12.7232 3.21185 12.7148 3.11704V2.80005H10.3436V12.6443C10.3398 13.7918 9.44909 14.721 8.35047 14.721C8.02789 14.721 7.7234 14.6409 7.4537 14.4986C7.8179 14.9984 8.39301 15.3209 9.04037 15.3209C10.1389 15.3209 11.0297 14.3917 11.0336 13.2441V3.39996H12.7509ZM8.95535 8.6896L8.95544 8.13119C8.75731 8.10286 8.55756 8.0887 8.35758 8.08881C5.95088 8.08881 4 10.1285 4 12.6443C4 14.2216 4.76663 15.6117 5.93175 16.4294C5.16332 15.6082 4.68982 14.4841 4.68982 13.2442C4.68982 10.7603 6.5912 8.74067 8.95535 8.6896Z" fill="white"/>
</g>
</g>
<defs>
<clipPath id="clip0_10_4551">
<rect width="20" height="20" fill="white"/>
</clipPath>
<clipPath id="clip1_10_4551">
<rect width="20" height="20" fill="white"/>
</clipPath>
</defs>
</svg>
