<svg width="20" height="20" viewBox="0 0 20 20" fill="none" xmlns="http://www.w3.org/2000/svg">
<g clip-path="url(#clip0_10_4547)">
<g clip-path="url(#clip1_10_4547)">
<g clip-path="url(#clip2_10_4547)">
<path fill-rule="evenodd" clip-rule="evenodd" d="M17.8142 3.41682C18.6764 3.64909 19.3541 4.32682 19.5832 5.18591C20 6.745 20 10 20 10C20 10 20 13.255 19.5832 14.8141C19.3509 15.6764 18.6732 16.3541 17.8142 16.5832C16.2552 17 10 17 10 17C10 17 3.74801 17 2.18581 16.5832C1.32358 16.3509 0.64588 15.6732 0.416799 14.8141C0 13.255 0 10 0 10C0 10 0 6.745 0.416799 5.18591C0.649061 4.32364 1.32676 3.64591 2.18581 3.41682C3.74801 3 10 3 10 3C10 3 16.2552 3 17.8142 3.41682ZM13.1976 10L8.00191 13.0005V6.99955L13.1976 10Z" fill="white"/>
</g>
</g>
</g>
<defs>
<clipPath id="clip0_10_4547">
<rect width="20" height="20" fill="white"/>
</clipPath>
<clipPath id="clip1_10_4547">
<rect width="20" height="20" fill="white"/>
</clipPath>
<clipPath id="clip2_10_4547">
<rect width="20" height="20" fill="white"/>
</clipPath>
</defs>
</svg>
